<svg xmlns="http://www.w3.org/2000/svg" width="439.979" height="377.738" viewBox="0 0 439.979 377.738">
  <g id="Gruppe_76" data-name="Gruppe 76" transform="translate(-996.43 -1078.679)">
    <circle id="Ellipse_116" data-name="Ellipse 116" cx="2.816" cy="2.816" r="2.816" transform="translate(1087.534 1373.235) rotate(171)" fill="#9984d4"/>
    <circle id="Ellipse_113" data-name="Ellipse 113" cx="2.455" cy="2.455" r="2.455" transform="matrix(0.391, -0.921, 0.921, 0.391, 1022.93, 1211.028)" fill="#ff9747"/>
    <circle id="Ellipse_111" data-name="Ellipse 111" cx="2.721" cy="2.721" r="2.721" transform="matrix(0.438, -0.899, 0.899, 0.438, 996.43, 1166.908)" fill="#ffb7b7"/>
    <rect id="Rechteck_129" data-name="Rechteck 129" width="3.672" height="10.558" transform="translate(1109.708 1438.282) rotate(-133)" fill="#e96390"/>
    <rect id="Rechteck_127" data-name="Rechteck 127" width="3.602" height="10.355" transform="matrix(-0.438, 0.899, -0.899, -0.438, 1070.587, 1324.278)" fill="#ffb7b7"/>
    <ellipse id="Ellipse_65" data-name="Ellipse 65" cx="2.68" cy="2.68" rx="2.68" ry="2.68" transform="translate(1201.561 1372.66) rotate(131)" fill="#ffc857"/>
    <ellipse id="Ellipse_64" data-name="Ellipse 64" cx="2.791" cy="2.791" rx="2.791" ry="2.791" transform="matrix(-0.545, 0.839, -0.839, -0.545, 1200.519, 1355.389)" fill="#ffb7b7"/>
    <ellipse id="Ellipse_63" data-name="Ellipse 63" cx="2.978" cy="2.978" rx="2.978" ry="2.978" transform="matrix(-0.996, 0.087, -0.087, -0.996, 1173.275, 1330.733)" fill="#9984d4"/>
    <ellipse id="Ellipse_62" data-name="Ellipse 62" cx="2.905" cy="2.905" rx="2.905" ry="2.905" transform="matrix(-0.309, -0.951, 0.951, -0.309, 1122.873, 1255.392)" fill="#ff9747"/>
    <circle id="Ellipse_61" data-name="Ellipse 61" cx="2.545" cy="2.545" r="2.545" transform="translate(1119.711 1221.727) rotate(-174)" fill="#ffc857"/>
    <ellipse id="Ellipse_60" data-name="Ellipse 60" cx="2.32" cy="2.32" rx="2.32" ry="2.32" transform="translate(1115.917 1177.072) rotate(65)" fill="#e96390"/>
    <ellipse id="Ellipse_58" data-name="Ellipse 58" cx="2.5" cy="2.5" rx="2.5" ry="2.5" transform="matrix(-0.839, -0.545, 0.545, -0.839, 1158.641, 1456.417)" fill="#9984d4"/>
    <circle id="Ellipse_57" data-name="Ellipse 57" cx="2.791" cy="2.791" r="2.791" transform="translate(1153.63 1367.028) rotate(101)" fill="#ff9747"/>
    <circle id="Ellipse_56" data-name="Ellipse 56" cx="2.774" cy="2.774" r="2.774" transform="translate(1141.485 1357.709) rotate(-162)" fill="#9984d4"/>
    <ellipse id="Ellipse_55" data-name="Ellipse 55" cx="2.922" cy="2.922" rx="2.922" ry="2.922" transform="matrix(-0.309, -0.951, 0.951, -0.309, 1101.309, 1308.068)" fill="#ff9747"/>
    <ellipse id="Ellipse_54" data-name="Ellipse 54" cx="2.432" cy="2.432" rx="2.432" ry="2.432" transform="translate(1125.551 1289.407) rotate(86)" fill="#ff9747"/>
    <circle id="Ellipse_53" data-name="Ellipse 53" cx="2.527" cy="2.527" r="2.527" transform="translate(1070.327 1261.552) rotate(-172)" fill="#9984d4"/>
    <circle id="Ellipse_52" data-name="Ellipse 52" cx="2.871" cy="2.871" r="2.871" transform="matrix(0.292, -0.956, 0.956, 0.292, 1056.344, 1237.329)" fill="#ffb7b7"/>
    <ellipse id="Ellipse_51" data-name="Ellipse 51" cx="2.598" cy="2.598" rx="2.598" ry="2.598" transform="translate(1049.603 1185.843) rotate(95)" fill="#ffc857"/>
    <ellipse id="Ellipse_50" data-name="Ellipse 50" cx="2.872" cy="2.872" rx="2.872" ry="2.872" transform="matrix(0.777, -0.629, 0.629, 0.777, 1043.727, 1166.634)" fill="#e96390"/>
    <rect id="Rechteck_61" data-name="Rechteck 61" width="3.159" height="9.081" transform="translate(1199.167 1417.069) rotate(-149)" fill="#ffc857"/>
    <rect id="Rechteck_60" data-name="Rechteck 60" width="3.957" height="11.377" transform="matrix(0.242, -0.97, 0.97, 0.242, 1125.835, 1308.329)" fill="#ffc857"/>
    <rect id="Rechteck_59" data-name="Rechteck 59" width="3.468" height="9.971" transform="translate(1121.636 1292.562) rotate(-139)" fill="#9984d4"/>
    <rect id="Rechteck_58" data-name="Rechteck 58" width="3.407" height="9.796" transform="matrix(-0.292, 0.956, -0.956, -0.292, 1085.969, 1158.093)" fill="#ff9747"/>
    <rect id="Rechteck_57" data-name="Rechteck 57" width="3.012" height="8.661" transform="matrix(-0.588, 0.809, -0.809, -0.588, 1093.637, 1130.778)" fill="#ffb7b7"/>
    <rect id="Rechteck_56" data-name="Rechteck 56" width="3.288" height="9.452" transform="matrix(-0.985, -0.174, 0.174, -0.985, 1125.577, 1417.815)" fill="#9984d4"/>
    <rect id="Rechteck_55" data-name="Rechteck 55" width="3.088" height="8.879" transform="translate(1041.473 1140.944) rotate(135)" fill="#ffb7b7"/>
    <circle id="Ellipse_113-2" data-name="Ellipse 113" cx="2.455" cy="2.455" r="2.455" transform="translate(1241.625 1159.327) rotate(76)" fill="#ff9747"/>
    <ellipse id="Ellipse_67" data-name="Ellipse 67" cx="2.705" cy="2.705" rx="2.705" ry="2.705" transform="matrix(0.454, -0.891, 0.891, 0.454, 1175.529, 1262.025)" fill="#ff9747"/>
    <circle id="Ellipse_66" data-name="Ellipse 66" cx="2.293" cy="2.293" r="2.293" transform="matrix(0.574, 0.819, -0.819, 0.574, 1246.615, 1305.973)" fill="#ffc857"/>
    <ellipse id="Ellipse_60-2" data-name="Ellipse 60" cx="2.32" cy="2.32" rx="2.32" ry="2.32" transform="matrix(-0.883, -0.469, 0.469, -0.883, 1187.799, 1242.406)" fill="#e96390"/>
    <ellipse id="Ellipse_51-2" data-name="Ellipse 51" cx="2.598" cy="2.598" rx="2.598" ry="2.598" transform="matrix(-0.53, -0.848, 0.848, -0.53, 1235.481, 1195.493)" fill="#ffc857"/>
    <ellipse id="Ellipse_50-2" data-name="Ellipse 50" cx="2.872" cy="2.872" rx="2.872" ry="2.872" transform="translate(1251.734 1207.297) rotate(104)" fill="#e96390"/>
    <rect id="Rechteck_63" data-name="Rechteck 63" width="3.41" height="9.804" transform="translate(1192.826 1266.303) rotate(-31)" fill="#9984d4"/>
    <rect id="Rechteck_58-2" data-name="Rechteck 58" width="3.407" height="9.796" transform="translate(1223.138 1239.54) rotate(-110)" fill="#ff9747"/>
    <rect id="Rechteck_57-2" data-name="Rechteck 57" width="3.012" height="8.661" transform="translate(1233.452 1265.97) rotate(-91)" fill="#ffb7b7"/>
    <rect id="Rechteck_62" data-name="Rechteck 62" width="3.409" height="9.8" transform="translate(1265.701 1298.347) rotate(-132)" fill="#e96390"/>
    <rect id="Rechteck_55-2" data-name="Rechteck 55" width="3.088" height="8.879" transform="translate(1268.994 1226.458) rotate(-82)" fill="#ffb7b7"/>
    <rect id="Rechteck_121" data-name="Rechteck 121" width="3.012" height="8.659" transform="translate(1260.195 1102.738) rotate(-109)" fill="#ff9747"/>
    <ellipse id="Ellipse_76" data-name="Ellipse 76" cx="2.432" cy="2.432" rx="2.432" ry="2.432" transform="matrix(-0.53, 0.848, -0.848, -0.53, 1198.338, 1081.256)" fill="#ff9747"/>
    <rect id="Rechteck_82" data-name="Rechteck 82" width="3.1" height="8.913" transform="matrix(0.035, -0.999, 0.999, 0.035, 1235.681, 1098.145)" fill="#e96390"/>
    <rect id="Rechteck_68" data-name="Rechteck 68" width="3.035" height="8.726" transform="translate(1145.807 1098.546) rotate(-169)" fill="#9984d4"/>
    <ellipse id="Ellipse_78" data-name="Ellipse 78" cx="2.761" cy="2.761" rx="2.761" ry="2.761" transform="matrix(-0.966, -0.259, 0.259, -0.966, 1245.374, 1158.037)" fill="#ffc857"/>
    <ellipse id="Ellipse_77" data-name="Ellipse 77" cx="2.281" cy="2.281" rx="2.281" ry="2.281" transform="translate(1251.359 1115.707) rotate(149)" fill="#e96390"/>
    <ellipse id="Ellipse_72" data-name="Ellipse 72" cx="2.984" cy="2.984" rx="2.984" ry="2.984" transform="matrix(0.998, -0.07, 0.07, 0.998, 1189.745, 1163.609)" fill="#ff9747"/>
    <rect id="Rechteck_70" data-name="Rechteck 70" width="3.111" height="8.945" transform="matrix(0.545, -0.839, 0.839, 0.545, 1167.561, 1193.098)" fill="#e96390"/>
    <rect id="Rechteck_69" data-name="Rechteck 69" width="3.246" height="9.332" transform="translate(1154.004 1122.023) rotate(-45)" fill="#9984d4"/>
    <ellipse id="Ellipse_158" data-name="Ellipse 158" cx="2.905" cy="2.905" rx="2.905" ry="2.905" transform="matrix(0.309, -0.951, 0.951, 0.309, 1419.72, 1296.476)" fill="#ff9747"/>
    <ellipse id="Ellipse_160" data-name="Ellipse 160" cx="2.545" cy="2.545" rx="2.545" ry="2.545" transform="matrix(0.995, -0.105, 0.105, 0.995, 1427.876, 1259.543)" fill="#ffc857"/>
    <ellipse id="Ellipse_161" data-name="Ellipse 161" cx="2.32" cy="2.32" rx="2.32" ry="2.32" transform="translate(1436.409 1221.912) rotate(115)" fill="#e96390"/>
    <ellipse id="Ellipse_159" data-name="Ellipse 159" cx="2.432" cy="2.432" rx="2.432" ry="2.432" transform="matrix(-0.07, 0.998, -0.998, -0.07, 1427.421, 1332.625)" fill="#ff9747"/>
    <rect id="Rechteck_191" data-name="Rechteck 191" width="3.468" height="9.971" transform="translate(1419.942 1327.916) rotate(-41)" fill="#9984d4"/>
    <ellipse id="Ellipse_149" data-name="Ellipse 149" cx="2.455" cy="2.455" rx="2.455" ry="2.455" transform="translate(1311.258 1203.394) rotate(104)" fill="#ff9747"/>
    <ellipse id="Ellipse_157" data-name="Ellipse 157" cx="2.705" cy="2.705" rx="2.705" ry="2.705" transform="matrix(-0.454, -0.891, 0.891, -0.454, 1367.771, 1307.359)" fill="#ff9747"/>
    <ellipse id="Ellipse_156" data-name="Ellipse 156" cx="2.32" cy="2.32" rx="2.32" ry="2.32" transform="matrix(0.883, -0.469, 0.469, 0.883, 1358.142, 1281.188)" fill="#e96390"/>
    <ellipse id="Ellipse_152" data-name="Ellipse 152" cx="2.598" cy="2.598" rx="2.598" ry="2.598" transform="matrix(0.53, -0.848, 0.848, 0.53, 1308.232, 1235.619)" fill="#ffc857"/>
    <ellipse id="Ellipse_150" data-name="Ellipse 150" cx="2.872" cy="2.872" rx="2.872" ry="2.872" transform="translate(1301.959 1248.787) rotate(76)" fill="#e96390"/>
    <rect id="Rechteck_187" data-name="Rechteck 187" width="3.41" height="9.804" transform="translate(1350.244 1317.585) rotate(-149)" fill="#9984d4"/>
    <rect id="Rechteck_184" data-name="Rechteck 184" width="3.407" height="9.796" transform="translate(1315.776 1279.069) rotate(-70)" fill="#ff9747"/>
    <rect id="Rechteck_183" data-name="Rechteck 183" width="3.012" height="8.661" transform="matrix(0.017, -1, 1, 0.017, 1306.008, 1308.698)" fill="#ffb7b7"/>
    <rect id="Rechteck_181" data-name="Rechteck 181" width="3.409" height="9.8" transform="translate(1275.136 1334.669) rotate(-48)" fill="#e96390"/>
    <rect id="Rechteck_182" data-name="Rechteck 182" width="3.088" height="8.879" transform="translate(1270.333 1270.573) rotate(-98)" fill="#ffb7b7"/>
    <rect id="Rechteck_185" data-name="Rechteck 185" width="3.012" height="8.659" transform="translate(1279.738 1142.798) rotate(-71)" fill="#ff9747"/>
    <ellipse id="Ellipse_154" data-name="Ellipse 154" cx="2.432" cy="2.432" rx="2.432" ry="2.432" transform="matrix(0.53, 0.848, -0.848, 0.53, 1353.906, 1121.558)" fill="#ff9747"/>
    <rect id="Rechteck_186" data-name="Rechteck 186" width="3.1" height="8.913" transform="matrix(-0.035, -0.999, 0.999, -0.035, 1303.531, 1141.335)" fill="#e96390"/>
    <rect id="Rechteck_190" data-name="Rechteck 190" width="3.035" height="8.726" transform="matrix(0.982, -0.191, 0.191, 0.982, 1400.648, 1132.859)" fill="#9984d4"/>
    <ellipse id="Ellipse_151" data-name="Ellipse 151" cx="2.761" cy="2.761" rx="2.761" ry="2.761" transform="matrix(0.966, -0.259, 0.259, 0.966, 1301.317, 1195.583)" fill="#ffc857"/>
    <ellipse id="Ellipse_153" data-name="Ellipse 153" cx="2.281" cy="2.281" rx="2.281" ry="2.281" transform="translate(1299.11 1154.676) rotate(31)" fill="#e96390"/>
    <ellipse id="Ellipse_155" data-name="Ellipse 155" cx="2.984" cy="2.984" rx="2.984" ry="2.984" transform="matrix(-0.998, -0.07, 0.07, -0.998, 1357.958, 1212.442)" fill="#ff9747"/>
    <rect id="Rechteck_188" data-name="Rechteck 188" width="3.111" height="8.945" transform="matrix(-0.545, -0.839, 0.839, -0.545, 1373.057, 1240.849)" fill="#e96390"/>
    <rect id="Rechteck_189" data-name="Rechteck 189" width="3.246" height="9.332" transform="translate(1387.518 1171.5) rotate(-135)" fill="#9984d4"/>
  </g>
</svg>
