<svg xmlns="http://www.w3.org/2000/svg" width="434.957" height="559.907" viewBox="0 0 434.957 559.907">
  <g id="Gruppe_60" data-name="Gruppe 60" transform="translate(201.627 102.748)">
    <circle id="Ellipse_115" data-name="Ellipse 115" cx="2.944" cy="2.944" r="2.944" transform="matrix(-0.588, -0.809, 0.809, -0.588, 18.47, -94.524)" fill="#ff9747"/>
    <circle id="Ellipse_105" data-name="Ellipse 105" cx="2.351" cy="2.351" r="2.351" transform="matrix(-0.695, 0.719, -0.719, -0.695, 134.741, 338.746)" fill="#ffb7b7"/>
    <ellipse id="Ellipse_104" data-name="Ellipse 104" cx="2.686" cy="2.686" rx="2.686" ry="2.686" transform="translate(96.319 297.375) rotate(120)" fill="#ff9747"/>
    <ellipse id="Ellipse_103" data-name="Ellipse 103" cx="2.359" cy="2.359" rx="2.359" ry="2.359" transform="matrix(-0.891, 0.454, -0.454, -0.891, 61.046, 346.063)" fill="#ff9747"/>
    <circle id="Ellipse_102" data-name="Ellipse 102" cx="2.807" cy="2.807" r="2.807" transform="matrix(0.809, -0.588, 0.588, 0.809, 75.533, 286.856)" fill="#9984d4"/>
    <circle id="Ellipse_101" data-name="Ellipse 101" cx="2.273" cy="2.273" r="2.273" transform="matrix(-0.809, -0.588, 0.588, -0.809, 209.613, 182.972)" fill="#ff9747"/>
    <ellipse id="Ellipse_98" data-name="Ellipse 98" cx="2.542" cy="2.542" rx="2.542" ry="2.542" transform="matrix(-0.985, 0.174, -0.174, -0.985, 156.478, 207.426)" fill="#ffc857"/>
    <ellipse id="Ellipse_97" data-name="Ellipse 97" cx="2.517" cy="2.517" rx="2.517" ry="2.517" transform="matrix(-0.875, 0.485, -0.485, -0.875, 153.405, 144.43)" fill="#9984d4"/>
    <circle id="Ellipse_96" data-name="Ellipse 96" cx="2.366" cy="2.366" r="2.366" transform="matrix(-0.438, 0.899, -0.899, -0.438, 185.448, 63.017)" fill="#e96390"/>
    <circle id="Ellipse_182" data-name="Ellipse 182" cx="2.366" cy="2.366" r="2.366" transform="matrix(-0.438, 0.899, -0.899, -0.438, -53.552, 377.785)" fill="#e96390"/>
    <circle id="Ellipse_91" data-name="Ellipse 91" cx="2.984" cy="2.984" r="2.984" transform="translate(99.803 272.041) rotate(-39)" fill="#ffb7b7"/>
    <ellipse id="Ellipse_90" data-name="Ellipse 90" cx="2.508" cy="2.508" rx="2.508" ry="2.508" transform="matrix(-0.883, -0.469, 0.469, -0.883, 113.805, 236.589)" fill="#e96390"/>
    <ellipse id="Ellipse_89" data-name="Ellipse 89" cx="2.331" cy="2.331" rx="2.331" ry="2.331" transform="translate(117.594 169.133) rotate(155)" fill="#ffc857"/>
    <ellipse id="Ellipse_87" data-name="Ellipse 87" cx="2.476" cy="2.476" rx="2.476" ry="2.476" transform="matrix(-0.105, 0.995, -0.995, -0.105, 43.888, 222.471)" fill="#e96390"/>
    <ellipse id="Ellipse_86" data-name="Ellipse 86" cx="2.926" cy="2.926" rx="2.926" ry="2.926" transform="matrix(-0.017, 1, -1, -0.017, 80.373, 157.762)" fill="#9984d4"/>
    <circle id="Ellipse_85" data-name="Ellipse 85" cx="2.253" cy="2.253" r="2.253" transform="translate(88.565 127.943) rotate(-30)" fill="#ffb7b7"/>
    <circle id="Ellipse_84" data-name="Ellipse 84" cx="2.375" cy="2.375" r="2.375" transform="matrix(-0.588, 0.809, -0.809, -0.588, 53.134, 89.761)" fill="#e96390"/>
    <ellipse id="Ellipse_83" data-name="Ellipse 83" cx="2.765" cy="2.765" rx="2.765" ry="2.765" transform="translate(52.975 27.888) rotate(-81)" fill="#ff9747"/>
    <circle id="Ellipse_81" data-name="Ellipse 81" cx="2.658" cy="2.658" r="2.658" transform="translate(10.896 224.958) rotate(-60)" fill="#e96390"/>
    <ellipse id="Ellipse_80" data-name="Ellipse 80" cx="2.864" cy="2.864" rx="2.864" ry="2.864" transform="translate(17.657 201.054) rotate(-90)" fill="#9984d4"/>
    <rect id="Rechteck_127" data-name="Rechteck 127" width="3.602" height="10.355" transform="translate(36.38 -58.584) rotate(140)" fill="#ffb7b7"/>
    <rect id="Rechteck_126" data-name="Rechteck 126" width="3.321" height="9.549" transform="matrix(0.454, -0.891, 0.891, 0.454, 9.706, -72.875)" fill="#e96390"/>
    <rect id="Rechteck_117" data-name="Rechteck 117" width="3.928" height="11.292" transform="matrix(-0.719, 0.695, -0.695, -0.719, 121.381, 318.12)" fill="#ffc857"/>
    <rect id="Rechteck_116" data-name="Rechteck 116" width="3.765" height="10.823" transform="translate(181.288 256.609) rotate(-132)" fill="#ffb7b7"/>
    <rect id="Rechteck_115" data-name="Rechteck 115" width="3.716" height="10.685" transform="translate(183.414 221.6) rotate(-167)" fill="#ffb7b7"/>
    <rect id="Rechteck_107" data-name="Rechteck 107" width="3.9" height="11.213" transform="matrix(-0.891, 0.454, -0.454, -0.891, 78.156, 337.162)" fill="#ffb7b7"/>
    <rect id="Rechteck_106" data-name="Rechteck 106" width="3.411" height="9.806" transform="translate(212.605 146.054) rotate(-19)" fill="#ffc857"/>
    <rect id="Rechteck_105" data-name="Rechteck 105" width="3.201" height="9.202" transform="matrix(-0.995, 0.105, -0.105, -0.995, 215.101, 117.951)" fill="#e96390"/>
    <rect id="Rechteck_215" data-name="Rechteck 215" width="3.201" height="9.202" transform="matrix(-0.995, 0.105, -0.105, -0.995, -23.899, 432.719)" fill="#e96390"/>
    <rect id="Rechteck_104" data-name="Rechteck 104" width="3.185" height="9.156" transform="translate(205.074 91.622) rotate(163)" fill="#ff9747"/>
    <rect id="Rechteck_214" data-name="Rechteck 214" width="3.185" height="9.156" transform="translate(-33.926 406.39) rotate(163)" fill="#ff9747"/>
    <rect id="Rechteck_103" data-name="Rechteck 103" width="3.753" height="10.791" transform="matrix(-0.788, 0.616, -0.616, -0.788, 222.018, 53.624)" fill="#e96390"/>
    <rect id="Rechteck_212" data-name="Rechteck 212" width="3.753" height="10.791" transform="matrix(-0.788, 0.616, -0.616, -0.788, -16.982, 368.392)" fill="#e96390"/>
    <rect id="Rechteck_102" data-name="Rechteck 102" width="3.807" height="10.944" transform="translate(210.363 13.575) rotate(-17)" fill="#e96390"/>
    <rect id="Rechteck_210" data-name="Rechteck 210" width="3.807" height="10.944" transform="translate(-28.637 328.342) rotate(-17)" fill="#e96390"/>
    <rect id="Rechteck_99" data-name="Rechteck 99" width="3.213" height="9.237" transform="matrix(-0.978, 0.208, -0.208, -0.978, 154.615, 258.775)" fill="#ff9747"/>
    <rect id="Rechteck_98" data-name="Rechteck 98" width="3.563" height="10.243" transform="matrix(-0.485, -0.875, 0.875, -0.485, 158.082, 169.248)" fill="#ffb7b7"/>
    <rect id="Rechteck_97" data-name="Rechteck 97" width="3.809" height="10.95" transform="matrix(-0.454, 0.891, -0.891, -0.454, 203.706, 118.902)" fill="#e96390"/>
    <rect id="Rechteck_216" data-name="Rechteck 216" width="3.809" height="10.95" transform="matrix(-0.454, 0.891, -0.891, -0.454, -35.294, 433.67)" fill="#e96390"/>
    <rect id="Rechteck_96" data-name="Rechteck 96" width="3.957" height="11.377" transform="translate(163.126 28.861) rotate(-120)" fill="#ffc857"/>
    <rect id="Rechteck_211" data-name="Rechteck 211" width="3.957" height="11.377" transform="translate(-75.874 343.629) rotate(-120)" fill="#ffc857"/>
    <rect id="Rechteck_95" data-name="Rechteck 95" width="3.406" height="9.791" transform="matrix(-0.891, 0.454, -0.454, -0.891, 147.124, 210.859)" fill="#ff9747"/>
    <rect id="Rechteck_94" data-name="Rechteck 94" width="3.57" height="10.263" transform="translate(136.975 134.734) rotate(-131)" fill="#ff9747"/>
    <rect id="Rechteck_217" data-name="Rechteck 217" width="3.57" height="10.263" transform="translate(-102.025 449.502) rotate(-131)" fill="#ff9747"/>
    <rect id="Rechteck_93" data-name="Rechteck 93" width="3.177" height="9.135" transform="translate(124.3 121.959) rotate(-79)" fill="#e96390"/>
    <rect id="Rechteck_92" data-name="Rechteck 92" width="3.409" height="9.801" transform="translate(122.776 62.003) rotate(-120)" fill="#ffc857"/>
    <rect id="Rechteck_91" data-name="Rechteck 91" width="3.317" height="9.536" transform="translate(138.778 51.702) rotate(173)" fill="#ffb7b7"/>
    <rect id="Rechteck_213" data-name="Rechteck 213" width="3.317" height="9.536" transform="translate(-100.222 366.469) rotate(173)" fill="#ffb7b7"/>
    <rect id="Rechteck_87" data-name="Rechteck 87" width="3.217" height="9.25" transform="translate(42.752 263.274) rotate(-20)" fill="#e96390"/>
    <rect id="Rechteck_86" data-name="Rechteck 86" width="3.312" height="9.522" transform="translate(80.337 198.843) rotate(-104)" fill="#ffb7b7"/>
    <rect id="Rechteck_85" data-name="Rechteck 85" width="3.88" height="11.154" transform="matrix(-0.035, -0.999, 0.999, -0.035, 69.287, 75.545)" fill="#ff9747"/>
    <rect id="Rechteck_81" data-name="Rechteck 81" width="3.95" height="11.355" transform="translate(20.508 261.513) rotate(-19)" fill="#ffc857"/>
    <rect id="Rechteck_77" data-name="Rechteck 77" width="3.196" height="9.189" transform="matrix(-0.174, -0.985, 0.985, -0.174, 21.1, 54.499)" fill="#ffc857"/>
    <rect id="Rechteck_76" data-name="Rechteck 76" width="3.058" height="8.791" transform="matrix(0.788, -0.616, 0.616, 0.788, 30.577, 9.523)" fill="#ff9747"/>
    <ellipse id="Ellipse_65" data-name="Ellipse 65" cx="2.68" cy="2.68" rx="2.68" ry="2.68" transform="translate(64.87 440.893) rotate(155)" fill="#ffc857"/>
    <ellipse id="Ellipse_64" data-name="Ellipse 64" cx="2.791" cy="2.791" rx="2.791" ry="2.791" transform="matrix(-0.839, 0.545, -0.545, -0.839, 70.943, 424.692)" fill="#ffb7b7"/>
    <ellipse id="Ellipse_63" data-name="Ellipse 63" cx="2.978" cy="2.978" rx="2.978" ry="2.978" transform="translate(56.083 391.087) rotate(-161)" fill="#9984d4"/>
    <ellipse id="Ellipse_62" data-name="Ellipse 62" cx="2.905" cy="2.905" rx="2.905" ry="2.905" transform="matrix(0.105, -0.995, 0.995, 0.105, 40.682, 301.759)" fill="#ff9747"/>
    <circle id="Ellipse_57" data-name="Ellipse 57" cx="2.791" cy="2.791" r="2.791" transform="matrix(-0.574, 0.819, -0.819, -0.574, 23.375, 416.253)" fill="#ff9747"/>
    <circle id="Ellipse_56" data-name="Ellipse 56" cx="2.774" cy="2.774" r="2.774" transform="translate(16.07 402.8) rotate(-138)" fill="#9984d4"/>
    <ellipse id="Ellipse_54" data-name="Ellipse 54" cx="2.432" cy="2.432" rx="2.432" ry="2.432" transform="translate(29.294 333.922) rotate(110)" fill="#ff9747"/>
    <rect id="Rechteck_67" data-name="Rechteck 67" width="3.185" height="9.155" transform="matrix(-0.545, -0.839, 0.839, -0.545, 76.831, 457.159)" fill="#9984d4"/>
    <rect id="Rechteck_66" data-name="Rechteck 66" width="3.293" height="9.467" transform="matrix(-0.07, 0.998, -0.998, -0.07, 111.141, 436.732)" fill="#9984d4"/>
    <rect id="Rechteck_60" data-name="Rechteck 60" width="3.957" height="11.377" transform="matrix(0.616, -0.788, 0.788, 0.616, 21.856, 351.324)" fill="#ffc857"/>
    <rect id="Rechteck_59" data-name="Rechteck 59" width="3.468" height="9.971" transform="translate(20.496 319.101) rotate(-115)" fill="#9984d4"/>
    <circle id="Ellipse_95" data-name="Ellipse 95" cx="2.416" cy="2.416" r="2.416" transform="translate(202.639 -7.897) rotate(135)" fill="#9984d4"/>
    <circle id="Ellipse_181" data-name="Ellipse 181" cx="2.416" cy="2.416" r="2.416" transform="translate(-36.361 306.871) rotate(135)" fill="#9984d4"/>
    <ellipse id="Ellipse_88" data-name="Ellipse 88" cx="2.278" cy="2.278" rx="2.278" ry="2.278" transform="matrix(-0.407, -0.914, 0.914, -0.407, 130.229, 0.156)" fill="#ffc857"/>
    <ellipse id="Ellipse_82" data-name="Ellipse 82" cx="2.514" cy="2.514" rx="2.514" ry="2.514" transform="translate(94.698 -7.88) rotate(-172)" fill="#e96390"/>
    <ellipse id="Ellipse_78" data-name="Ellipse 78" cx="2.761" cy="2.761" rx="2.761" ry="2.761" transform="matrix(-0.966, -0.259, 0.259, -0.966, 20.983, -28.547)" fill="#ffc857"/>
    <rect id="Rechteck_101" data-name="Rechteck 101" width="3.124" height="8.981" transform="matrix(-0.259, -0.966, 0.966, -0.259, 224.655, -19.598)" fill="#ffc857"/>
    <rect id="Rechteck_209" data-name="Rechteck 209" width="3.124" height="8.981" transform="matrix(-0.259, -0.966, 0.966, -0.259, -14.345, 295.17)" fill="#ffc857"/>
    <g id="Gruppe_104" data-name="Gruppe 104" transform="matrix(0.719, 0.695, -0.695, 0.719, -984.588, -842.223)">
      <circle id="Ellipse_162" data-name="Ellipse 162" cx="2.455" cy="2.455" r="2.455" transform="translate(1253.625 22.018) rotate(76)" fill="#ff9747"/>
      <circle id="Ellipse_163" data-name="Ellipse 163" cx="2.293" cy="2.293" r="2.293" transform="matrix(0.574, 0.819, -0.819, 0.574, 1258.615, 168.664)" fill="#ffc857"/>
      <ellipse id="Ellipse_164" data-name="Ellipse 164" cx="2.598" cy="2.598" rx="2.598" ry="2.598" transform="matrix(-0.53, -0.848, 0.848, -0.53, 1247.481, 58.184)" fill="#ffc857"/>
      <ellipse id="Ellipse_165" data-name="Ellipse 165" cx="2.872" cy="2.872" rx="2.872" ry="2.872" transform="translate(1263.734 69.988) rotate(104)" fill="#e96390"/>
      <rect id="Rechteck_192" data-name="Rechteck 192" width="3.407" height="9.796" transform="translate(1235.138 102.231) rotate(-110)" fill="#ff9747"/>
      <rect id="Rechteck_193" data-name="Rechteck 193" width="3.012" height="8.661" transform="translate(1245.452 128.661) rotate(-91)" fill="#ffb7b7"/>
      <rect id="Rechteck_194" data-name="Rechteck 194" width="3.409" height="9.8" transform="translate(1277.701 161.038) rotate(-132)" fill="#e96390"/>
      <rect id="Rechteck_195" data-name="Rechteck 195" width="3.088" height="8.879" transform="translate(1280.994 89.149) rotate(-82)" fill="#ffb7b7"/>
      <rect id="Rechteck_196" data-name="Rechteck 196" width="3.012" height="8.659" transform="translate(1272.195 -34.571) rotate(-109)" fill="#ff9747"/>
      <rect id="Rechteck_197" data-name="Rechteck 197" width="3.1" height="8.913" transform="matrix(0.035, -0.999, 0.999, 0.035, 1247.681, -39.164)" fill="#e96390"/>
      <ellipse id="Ellipse_166" data-name="Ellipse 166" cx="2.761" cy="2.761" rx="2.761" ry="2.761" transform="matrix(-0.966, -0.259, 0.259, -0.966, 1257.374, 20.728)" fill="#ffc857"/>
      <ellipse id="Ellipse_167" data-name="Ellipse 167" cx="2.281" cy="2.281" rx="2.281" ry="2.281" transform="translate(1263.359 -21.603) rotate(149)" fill="#e96390"/>
      <ellipse id="Ellipse_168" data-name="Ellipse 168" cx="2.905" cy="2.905" rx="2.905" ry="2.905" transform="matrix(0.309, -0.951, 0.951, 0.309, 1431.72, 159.167)" fill="#ff9747"/>
      <ellipse id="Ellipse_169" data-name="Ellipse 169" cx="2.545" cy="2.545" rx="2.545" ry="2.545" transform="matrix(0.995, -0.105, 0.105, 0.995, 1439.876, 122.234)" fill="#ffc857"/>
      <ellipse id="Ellipse_170" data-name="Ellipse 170" cx="2.32" cy="2.32" rx="2.32" ry="2.32" transform="translate(1448.409 84.603) rotate(115)" fill="#e96390"/>
      <ellipse id="Ellipse_171" data-name="Ellipse 171" cx="2.432" cy="2.432" rx="2.432" ry="2.432" transform="matrix(-0.07, 0.998, -0.998, -0.07, 1439.421, 195.316)" fill="#ff9747"/>
      <rect id="Rechteck_198" data-name="Rechteck 198" width="3.468" height="9.971" transform="translate(1431.942 190.607) rotate(-41)" fill="#9984d4"/>
      <ellipse id="Ellipse_172" data-name="Ellipse 172" cx="2.455" cy="2.455" rx="2.455" ry="2.455" transform="translate(1323.258 66.084) rotate(104)" fill="#ff9747"/>
      <ellipse id="Ellipse_173" data-name="Ellipse 173" cx="2.705" cy="2.705" rx="2.705" ry="2.705" transform="matrix(-0.454, -0.891, 0.891, -0.454, 1379.771, 170.05)" fill="#ff9747"/>
      <ellipse id="Ellipse_174" data-name="Ellipse 174" cx="2.32" cy="2.32" rx="2.32" ry="2.32" transform="matrix(0.883, -0.469, 0.469, 0.883, 1370.142, 143.879)" fill="#e96390"/>
      <ellipse id="Ellipse_175" data-name="Ellipse 175" cx="2.598" cy="2.598" rx="2.598" ry="2.598" transform="matrix(0.53, -0.848, 0.848, 0.53, 1320.232, 98.31)" fill="#ffc857"/>
      <ellipse id="Ellipse_176" data-name="Ellipse 176" cx="2.872" cy="2.872" rx="2.872" ry="2.872" transform="translate(1313.959 111.478) rotate(76)" fill="#e96390"/>
      <rect id="Rechteck_199" data-name="Rechteck 199" width="3.41" height="9.804" transform="translate(1362.244 180.276) rotate(-149)" fill="#9984d4"/>
      <rect id="Rechteck_200" data-name="Rechteck 200" width="3.407" height="9.796" transform="translate(1327.776 141.76) rotate(-70)" fill="#ff9747"/>
      <rect id="Rechteck_201" data-name="Rechteck 201" width="3.012" height="8.661" transform="matrix(0.017, -1, 1, 0.017, 1318.008, 171.389)" fill="#ffb7b7"/>
      <rect id="Rechteck_202" data-name="Rechteck 202" width="3.409" height="9.8" transform="translate(1287.136 197.36) rotate(-48)" fill="#e96390"/>
      <rect id="Rechteck_203" data-name="Rechteck 203" width="3.088" height="8.879" transform="translate(1282.333 133.264) rotate(-98)" fill="#ffb7b7"/>
      <rect id="Rechteck_204" data-name="Rechteck 204" width="3.012" height="8.659" transform="translate(1291.738 5.489) rotate(-71)" fill="#ff9747"/>
      <ellipse id="Ellipse_177" data-name="Ellipse 177" cx="2.432" cy="2.432" rx="2.432" ry="2.432" transform="matrix(0.53, 0.848, -0.848, 0.53, 1365.906, -15.751)" fill="#ff9747"/>
      <rect id="Rechteck_205" data-name="Rechteck 205" width="3.1" height="8.913" transform="matrix(-0.035, -0.999, 0.999, -0.035, 1315.531, 4.026)" fill="#e96390"/>
      <rect id="Rechteck_206" data-name="Rechteck 206" width="3.035" height="8.726" transform="matrix(0.982, -0.191, 0.191, 0.982, 1412.648, -4.45)" fill="#9984d4"/>
      <ellipse id="Ellipse_178" data-name="Ellipse 178" cx="2.761" cy="2.761" rx="2.761" ry="2.761" transform="matrix(0.966, -0.259, 0.259, 0.966, 1313.317, 58.274)" fill="#ffc857"/>
      <ellipse id="Ellipse_179" data-name="Ellipse 179" cx="2.281" cy="2.281" rx="2.281" ry="2.281" transform="translate(1311.11 17.367) rotate(31)" fill="#e96390"/>
      <ellipse id="Ellipse_180" data-name="Ellipse 180" cx="2.984" cy="2.984" rx="2.984" ry="2.984" transform="matrix(-0.998, -0.07, 0.07, -0.998, 1369.958, 75.133)" fill="#ff9747"/>
      <rect id="Rechteck_207" data-name="Rechteck 207" width="3.111" height="8.945" transform="matrix(-0.545, -0.839, 0.839, -0.545, 1385.057, 103.54)" fill="#e96390"/>
      <rect id="Rechteck_208" data-name="Rechteck 208" width="3.246" height="9.332" transform="translate(1399.518 34.191) rotate(-135)" fill="#9984d4"/>
    </g>
  </g>
</svg>
