<svg xmlns="http://www.w3.org/2000/svg" width="284.008" height="774.81" viewBox="0 0 284.008 774.81">
  <g id="Group_70" data-name="Group 70" transform="translate(52 -2311.396)">
    <ellipse id="Ellipse_92" data-name="Ellipse 92" cx="2.599" cy="2.599" rx="2.599" ry="2.599" transform="matrix(-0.469, 0.883, -0.883, -0.469, 137.225, 2544.004)" fill="#ff9747"/>
    <circle id="Ellipse_91" data-name="Ellipse 91" cx="2.984" cy="2.984" r="2.984" transform="translate(137.968 2513.079) rotate(-39)" fill="#ffb7b7"/>
    <ellipse id="Ellipse_90" data-name="Ellipse 90" cx="2.508" cy="2.508" rx="2.508" ry="2.508" transform="matrix(-0.883, -0.469, 0.469, -0.883, 151.97, 2477.627)" fill="#e96390"/>
    <ellipse id="Ellipse_89" data-name="Ellipse 89" cx="2.331" cy="2.331" rx="2.331" ry="2.331" transform="translate(155.759 2410.172) rotate(155)" fill="#ffc857"/>
    <ellipse id="Ellipse_87" data-name="Ellipse 87" cx="2.476" cy="2.476" rx="2.476" ry="2.476" transform="matrix(-0.105, 0.995, -0.995, -0.105, 82.053, 2463.51)" fill="#e96390"/>
    <ellipse id="Ellipse_86" data-name="Ellipse 86" cx="2.926" cy="2.926" rx="2.926" ry="2.926" transform="matrix(-0.017, 1, -1, -0.017, 118.538, 2398.801)" fill="#9984d4"/>
    <circle id="Ellipse_85" data-name="Ellipse 85" cx="2.253" cy="2.253" r="2.253" transform="translate(126.73 2368.981) rotate(-30)" fill="#ffb7b7"/>
    <circle id="Ellipse_84" data-name="Ellipse 84" cx="2.375" cy="2.375" r="2.375" transform="matrix(-0.588, 0.809, -0.809, -0.588, 91.299, 2330.8)" fill="#e96390"/>
    <circle id="Ellipse_81" data-name="Ellipse 81" cx="2.658" cy="2.658" r="2.658" transform="translate(49.061 2465.996) rotate(-60)" fill="#e96390"/>
    <ellipse id="Ellipse_80" data-name="Ellipse 80" cx="2.864" cy="2.864" rx="2.864" ry="2.864" transform="translate(55.822 2442.093) rotate(-90)" fill="#9984d4"/>
    <circle id="Ellipse_79" data-name="Ellipse 79" cx="2.711" cy="2.711" r="2.711" transform="translate(36.001 2426.911) rotate(-132)" fill="#ffc857"/>
    <ellipse id="Ellipse_76" data-name="Ellipse 76" cx="2.432" cy="2.432" rx="2.432" ry="2.432" transform="matrix(-0.53, 0.848, -0.848, -0.53, 12.113, 2536.711)" fill="#ff9747"/>
    <ellipse id="Ellipse_74" data-name="Ellipse 74" cx="2.787" cy="2.787" rx="2.787" ry="2.787" transform="translate(11.853 2401.021) rotate(-13)" fill="#9984d4"/>
    <rect id="Rectangle_88" data-name="Rectangle 88" width="3.253" height="9.353" transform="translate(111.295 2539.257) rotate(155)" fill="#ffc857"/>
    <rect id="Rectangle_87" data-name="Rectangle 87" width="3.217" height="9.25" transform="translate(80.917 2504.313) rotate(-20)" fill="#e96390"/>
    <rect id="Rectangle_86" data-name="Rectangle 86" width="3.312" height="9.522" transform="translate(118.502 2439.882) rotate(-104)" fill="#ffb7b7"/>
    <rect id="Rectangle_82" data-name="Rectangle 82" width="3.1" height="8.913" transform="matrix(0.035, -0.999, 0.999, 0.035, 49.456, 2553.599)" fill="#e96390"/>
    <rect id="Rectangle_81" data-name="Rectangle 81" width="3.95" height="11.355" transform="translate(58.673 2502.552) rotate(-19)" fill="#ffc857"/>
    <rect id="Rectangle_80" data-name="Rectangle 80" width="3.384" height="9.728" transform="matrix(0.454, -0.891, 0.891, 0.454, 38.995, 2371.676)" fill="#9984d4"/>
    <rect id="Rectangle_79" data-name="Rectangle 79" width="3.027" height="8.703" transform="matrix(0.087, -0.996, 0.996, 0.087, 24.12, 2346.942)" fill="#ffc857"/>
    <rect id="Rectangle_78" data-name="Rectangle 78" width="3.043" height="8.75" transform="matrix(-0.788, 0.616, -0.616, -0.788, 49.79, 2323.206)" fill="#e96390"/>
    <rect id="Rectangle_75" data-name="Rectangle 75" width="3.513" height="10.099" transform="matrix(-0.208, 0.978, -0.978, -0.208, 16.275, 2465.024)" fill="#ff9747"/>
    <rect id="Rectangle_74" data-name="Rectangle 74" width="3.448" height="9.913" transform="matrix(-0.309, -0.951, 0.951, -0.309, -1.484, 2437.476)" fill="#ffb7b7"/>
    <ellipse id="Ellipse_71" data-name="Ellipse 71" cx="2.252" cy="2.252" rx="2.252" ry="2.252" transform="matrix(-0.087, 0.996, -0.996, -0.087, 111.38, 2825.163)" fill="#e96390"/>
    <ellipse id="Ellipse_68" data-name="Ellipse 68" cx="2.968" cy="2.968" rx="2.968" ry="2.968" transform="matrix(0.035, -0.999, 0.999, 0.035, 97.467, 2576.107)" fill="#ffc857"/>
    <ellipse id="Ellipse_65" data-name="Ellipse 65" cx="2.68" cy="2.68" rx="2.68" ry="2.68" transform="translate(72.27 2767.077) rotate(155)" fill="#ffc857"/>
    <ellipse id="Ellipse_64" data-name="Ellipse 64" cx="2.791" cy="2.791" rx="2.791" ry="2.791" transform="matrix(-0.839, 0.545, -0.545, -0.839, 78.343, 2750.875)" fill="#ffb7b7"/>
    <ellipse id="Ellipse_63" data-name="Ellipse 63" cx="2.978" cy="2.978" rx="2.978" ry="2.978" transform="translate(63.484 2717.27) rotate(-161)" fill="#9984d4"/>
    <ellipse id="Ellipse_62" data-name="Ellipse 62" cx="2.905" cy="2.905" rx="2.905" ry="2.905" transform="matrix(0.105, -0.995, 0.995, 0.105, 48.083, 2627.942)" fill="#ff9747"/>
    <circle id="Ellipse_61" data-name="Ellipse 61" cx="2.545" cy="2.545" r="2.545" transform="translate(58.887 2595.901) rotate(-150)" fill="#ffc857"/>
    <ellipse id="Ellipse_59" data-name="Ellipse 59" cx="2.518" cy="2.518" rx="2.518" ry="2.518" transform="translate(3.991 2865.679) rotate(-93)" fill="#ffc857"/>
    <ellipse id="Ellipse_58" data-name="Ellipse 58" cx="2.5" cy="2.5" rx="2.5" ry="2.5" transform="matrix(-0.545, -0.839, 0.839, -0.545, -1.006, 2826.135)" fill="#9984d4"/>
    <circle id="Ellipse_57" data-name="Ellipse 57" cx="2.791" cy="2.791" r="2.791" transform="matrix(-0.574, 0.819, -0.819, -0.574, 30.775, 2742.436)" fill="#ff9747"/>
    <circle id="Ellipse_56" data-name="Ellipse 56" cx="2.774" cy="2.774" r="2.774" transform="translate(23.47 2728.983) rotate(-138)" fill="#9984d4"/>
    <ellipse id="Ellipse_55" data-name="Ellipse 55" cx="2.922" cy="2.922" rx="2.922" ry="2.922" transform="matrix(0.105, -0.995, 0.995, 0.105, 6.957, 2667.292)" fill="#ff9747"/>
    <ellipse id="Ellipse_54" data-name="Ellipse 54" cx="2.432" cy="2.432" rx="2.432" ry="2.432" transform="translate(36.695 2660.105) rotate(110)" fill="#ff9747"/>
    <circle id="Ellipse_52" data-name="Ellipse 52" cx="2.871" cy="2.871" r="2.871" transform="translate(-5.347 2584.38) rotate(-49)" fill="#ffb7b7"/>
    <rect id="Rectangle_67" data-name="Rectangle 67" width="3.185" height="9.155" transform="matrix(-0.545, -0.839, 0.839, -0.545, 84.231, 2783.343)" fill="#9984d4"/>
    <rect id="Rectangle_66" data-name="Rectangle 66" width="3.293" height="9.467" transform="matrix(-0.07, 0.998, -0.998, -0.07, 118.541, 2762.916)" fill="#9984d4"/>
    <rect id="Rectangle_62" data-name="Rectangle 62" width="3.409" height="9.8" transform="translate(84.743 2859.308) rotate(109)" fill="#e96390"/>
    <rect id="Rectangle_61" data-name="Rectangle 61" width="3.159" height="9.081" transform="matrix(-0.574, -0.819, 0.819, -0.574, 52.021, 2806.673)" fill="#ffc857"/>
    <rect id="Rectangle_60" data-name="Rectangle 60" width="3.957" height="11.377" transform="matrix(0.616, -0.788, 0.788, 0.616, 29.257, 2677.507)" fill="#ffc857"/>
    <rect id="Rectangle_59" data-name="Rectangle 59" width="3.468" height="9.971" transform="translate(31.835 2661.395) rotate(-115)" fill="#9984d4"/>
    <circle id="Ellipse_108" data-name="Ellipse 108" cx="2.701" cy="2.701" r="2.701" transform="matrix(-0.809, -0.588, 0.588, -0.809, 195.042, 2894.66)" fill="#ff9747"/>
    <circle id="Ellipse_105" data-name="Ellipse 105" cx="2.351" cy="2.351" r="2.351" transform="matrix(-0.695, 0.719, -0.719, -0.695, 149.834, 3029.331)" fill="#ffb7b7"/>
    <ellipse id="Ellipse_104" data-name="Ellipse 104" cx="2.686" cy="2.686" rx="2.686" ry="2.686" transform="translate(111.413 2987.96) rotate(120)" fill="#ff9747"/>
    <ellipse id="Ellipse_103" data-name="Ellipse 103" cx="2.359" cy="2.359" rx="2.359" ry="2.359" transform="matrix(-0.891, 0.454, -0.454, -0.891, 76.14, 3036.648)" fill="#ff9747"/>
    <circle id="Ellipse_102" data-name="Ellipse 102" cx="2.807" cy="2.807" r="2.807" transform="matrix(0.809, -0.588, 0.588, 0.809, 90.627, 2977.441)" fill="#9984d4"/>
    <circle id="Ellipse_101" data-name="Ellipse 101" cx="2.273" cy="2.273" r="2.273" transform="matrix(-0.809, -0.588, 0.588, -0.809, 61.036, 2951.531)" fill="#ff9747"/>
    <ellipse id="Ellipse_98" data-name="Ellipse 98" cx="2.542" cy="2.542" rx="2.542" ry="2.542" transform="matrix(-0.985, 0.174, -0.174, -0.985, 7.901, 2975.985)" fill="#ffc857"/>
    <ellipse id="Ellipse_97" data-name="Ellipse 97" cx="2.517" cy="2.517" rx="2.517" ry="2.517" transform="matrix(-0.875, 0.485, -0.485, -0.875, 4.828, 2912.988)" fill="#9984d4"/>
    <rect id="Rectangle_128" data-name="Rectangle 128" width="3.095" height="8.898" transform="matrix(-0.839, -0.545, 0.545, -0.839, 227.161, 2973.674)" fill="#ffb7b7"/>
    <rect id="Rectangle_125" data-name="Rectangle 125" width="3.009" height="8.65" transform="translate(198.828 3021.701) rotate(-41)" fill="#9984d4"/>
    <rect id="Rectangle_124" data-name="Rectangle 124" width="3.069" height="8.822" transform="translate(166.207 2974.978) rotate(-104)" fill="#ff9747"/>
    <rect id="Rectangle_123" data-name="Rectangle 123" width="3.74" height="10.753" transform="translate(195.852 2938.594) rotate(110)" fill="#ffb7b7"/>
    <rect id="Rectangle_122" data-name="Rectangle 122" width="3.777" height="10.859" transform="matrix(0.719, -0.695, 0.695, 0.719, 165.327, 2880.431)" fill="#e96390"/>
    <rect id="Rectangle_117" data-name="Rectangle 117" width="3.928" height="11.292" transform="matrix(-0.719, 0.695, -0.695, -0.719, 136.475, 3008.705)" fill="#ffc857"/>
    <rect id="Rectangle_116" data-name="Rectangle 116" width="3.765" height="10.823" transform="translate(125.77 2939.599) rotate(-132)" fill="#ffb7b7"/>
    <rect id="Rectangle_115" data-name="Rectangle 115" width="3.716" height="10.685" transform="translate(127.896 2904.59) rotate(-167)" fill="#ffb7b7"/>
    <rect id="Rectangle_114" data-name="Rectangle 114" width="3.397" height="9.765" transform="matrix(0.017, 1, -1, 0.017, 121.999, 2886.53)" fill="#ffc857"/>
    <rect id="Rectangle_107" data-name="Rectangle 107" width="3.9" height="11.213" transform="matrix(-0.891, 0.454, -0.454, -0.891, 93.249, 3027.747)" fill="#ffb7b7"/>
    <rect id="Rectangle_106" data-name="Rectangle 106" width="3.411" height="9.806" transform="translate(64.029 2914.613) rotate(-19)" fill="#ffc857"/>
    <rect id="Rectangle_99" data-name="Rectangle 99" width="3.213" height="9.237" transform="matrix(-0.978, 0.208, -0.208, -0.978, 6.039, 3027.334)" fill="#ff9747"/>
    <rect id="Rectangle_98" data-name="Rectangle 98" width="3.563" height="10.243" transform="matrix(-0.485, -0.875, 0.875, -0.485, 9.505, 2937.806)" fill="#ffb7b7"/>
    <rect id="Rectangle_97" data-name="Rectangle 97" width="3.809" height="10.95" transform="matrix(-0.454, 0.891, -0.891, -0.454, 55.129, 2887.46)" fill="#e96390"/>
    <ellipse id="Ellipse_110" data-name="Ellipse 110" cx="2.358" cy="2.358" rx="2.358" ry="2.358" transform="matrix(0.999, -0.035, 0.035, 0.999, 183.017, 3062.268)" fill="#9984d4"/>
    <ellipse id="Ellipse_109" data-name="Ellipse 109" cx="2.525" cy="2.525" rx="2.525" ry="2.525" transform="translate(157.417 3039.287) rotate(-93)" fill="#9984d4"/>
    <circle id="Ellipse_99" data-name="Ellipse 99" cx="2.859" cy="2.859" r="2.859" transform="matrix(-0.819, -0.574, 0.574, -0.819, 1.885, 3050.212)" fill="#ffb7b7"/>
    <rect id="Rectangle_118" data-name="Rectangle 118" width="3.788" height="10.89" transform="translate(160.535 3071.124) rotate(129)" fill="#ffc857"/>
    <rect id="Rectangle_108" data-name="Rectangle 108" width="3.357" height="9.652" transform="translate(92.881 3066.17) rotate(-120)" fill="#ff9747"/>
    <rect id="Rectangle_100" data-name="Rectangle 100" width="3.162" height="9.092" transform="matrix(-0.788, 0.616, -0.616, -0.788, 50.981, 3084.259)" fill="#ffc857"/>
    <ellipse id="Ellipse_75" data-name="Ellipse 75" cx="2.951" cy="2.951" rx="2.951" ry="2.951" transform="translate(-10.866 2499.202) rotate(107)" fill="#e96390"/>
    <ellipse id="Ellipse_73" data-name="Ellipse 73" cx="2.842" cy="2.842" rx="2.842" ry="2.842" transform="matrix(-0.391, 0.921, -0.921, -0.391, -20.549, 2355.553)" fill="#9984d4"/>
    <circle id="Ellipse_70" data-name="Ellipse 70" cx="2.983" cy="2.983" r="2.983" transform="translate(-30.455 2393.307) rotate(149)" fill="#ffb7b7"/>
    <ellipse id="Ellipse_69" data-name="Ellipse 69" cx="2.862" cy="2.862" rx="2.862" ry="2.862" transform="translate(-29.099 2359.741) rotate(180)" fill="#e96390"/>
    <circle id="Ellipse_53" data-name="Ellipse 53" cx="2.527" cy="2.527" r="2.527" transform="matrix(-0.848, -0.53, 0.53, -0.848, -2.426, 2612.197)" fill="#9984d4"/>
    <rect id="Rectangle_95" data-name="Rectangle 95" width="3.406" height="9.791" transform="matrix(-0.891, 0.454, -0.454, -0.891, -1.453, 2979.417)" fill="#ff9747"/>
    <rect id="Rectangle_94" data-name="Rectangle 94" width="3.57" height="10.263" transform="translate(-11.602 2903.293) rotate(-131)" fill="#ff9747"/>
    <rect id="Rectangle_93" data-name="Rectangle 93" width="3.177" height="9.135" transform="translate(-24.276 2890.517) rotate(-79)" fill="#e96390"/>
    <rect id="Rectangle_73" data-name="Rectangle 73" width="3.718" height="10.689" transform="translate(-13.423 2397.909) rotate(124)" fill="#ffc857"/>
    <rect id="Rectangle_68" data-name="Rectangle 68" width="3.035" height="8.726" transform="translate(-40.419 2554) rotate(-169)" fill="#9984d4"/>
    <rect id="Rectangle_65" data-name="Rectangle 65" width="3.649" height="10.491" transform="translate(-52 2402.242) rotate(-77)" fill="#9984d4"/>
    <rect id="Rectangle_64" data-name="Rectangle 64" width="3.511" height="10.095" transform="translate(-26.921 2319.014) rotate(139)" fill="#9984d4"/>
    <rect id="Rectangle_56" data-name="Rectangle 56" width="3.288" height="9.452" transform="translate(-15.51 2777.422) rotate(-146)" fill="#9984d4"/>
  </g>
</svg>
