<svg xmlns="http://www.w3.org/2000/svg" width="178.492" height="620.41" viewBox="0 0 178.492 620.41">
  <g id="Group_69" data-name="Group 69" transform="translate(-1118.578 -2355.713)">
    <ellipse id="Ellipse_118" data-name="Ellipse 118" cx="2.766" cy="2.766" rx="2.766" ry="2.766" transform="matrix(-0.996, 0.087, -0.087, -0.996, 1273.051, 2973.024)" fill="#9984d4"/>
    <ellipse id="Ellipse_117" data-name="Ellipse 117" cx="2.445" cy="2.445" rx="2.445" ry="2.445" transform="translate(1271.989 2951.869) rotate(-70)" fill="#9984d4"/>
    <circle id="Ellipse_115" data-name="Ellipse 115" cx="2.944" cy="2.944" r="2.944" transform="matrix(-0.588, -0.809, 0.809, -0.588, 1272.47, 2761.666)" fill="#ff9747"/>
    <ellipse id="Ellipse_110" data-name="Ellipse 110" cx="2.358" cy="2.358" rx="2.358" ry="2.358" transform="matrix(0.999, -0.035, 0.035, 0.999, 1216.514, 2964.323)" fill="#9984d4"/>
    <ellipse id="Ellipse_109" data-name="Ellipse 109" cx="2.525" cy="2.525" rx="2.525" ry="2.525" transform="translate(1190.915 2941.342) rotate(-93)" fill="#9984d4"/>
    <circle id="Ellipse_108" data-name="Ellipse 108" cx="2.701" cy="2.701" r="2.701" transform="matrix(-0.809, -0.588, 0.588, -0.809, 1228.539, 2796.715)" fill="#ff9747"/>
    <ellipse id="Ellipse_107" data-name="Ellipse 107" cx="2.529" cy="2.529" rx="2.529" ry="2.529" transform="translate(1194.819 2754.352) rotate(-87)" fill="#9984d4"/>
    <circle id="Ellipse_105" data-name="Ellipse 105" cx="2.351" cy="2.351" r="2.351" transform="matrix(-0.695, 0.719, -0.719, -0.695, 1183.331, 2931.385)" fill="#ffb7b7"/>
    <ellipse id="Ellipse_104" data-name="Ellipse 104" cx="2.686" cy="2.686" rx="2.686" ry="2.686" transform="translate(1144.91 2890.015) rotate(120)" fill="#ff9747"/>
    <circle id="Ellipse_102" data-name="Ellipse 102" cx="2.807" cy="2.807" r="2.807" transform="matrix(0.809, -0.588, 0.588, 0.809, 1124.124, 2879.496)" fill="#9984d4"/>
    <rect id="Rectangle_129" data-name="Rectangle 129" width="3.672" height="10.558" transform="translate(1279.75 2917.665) rotate(-109)" fill="#e96390"/>
    <rect id="Rectangle_128" data-name="Rectangle 128" width="3.095" height="8.898" transform="matrix(-0.839, -0.545, 0.545, -0.839, 1260.658, 2875.729)" fill="#ffb7b7"/>
    <rect id="Rectangle_126" data-name="Rectangle 126" width="3.321" height="9.549" transform="matrix(0.454, -0.891, 0.891, 0.454, 1263.706, 2783.315)" fill="#e96390"/>
    <rect id="Rectangle_125" data-name="Rectangle 125" width="3.009" height="8.65" transform="translate(1232.325 2923.756) rotate(-41)" fill="#9984d4"/>
    <rect id="Rectangle_124" data-name="Rectangle 124" width="3.069" height="8.822" transform="translate(1199.704 2877.033) rotate(-104)" fill="#ff9747"/>
    <rect id="Rectangle_123" data-name="Rectangle 123" width="3.74" height="10.753" transform="translate(1229.349 2840.649) rotate(110)" fill="#ffb7b7"/>
    <rect id="Rectangle_122" data-name="Rectangle 122" width="3.777" height="10.859" transform="matrix(0.719, -0.695, 0.695, 0.719, 1198.823, 2782.486)" fill="#e96390"/>
    <rect id="Rectangle_118" data-name="Rectangle 118" width="3.788" height="10.89" transform="translate(1194.031 2973.179) rotate(129)" fill="#ffc857"/>
    <rect id="Rectangle_117" data-name="Rectangle 117" width="3.928" height="11.292" transform="matrix(-0.719, 0.695, -0.695, -0.719, 1169.972, 2910.76)" fill="#ffc857"/>
    <rect id="Rectangle_116" data-name="Rectangle 116" width="3.765" height="10.823" transform="translate(1159.266 2841.653) rotate(-132)" fill="#ffb7b7"/>
    <rect id="Rectangle_115" data-name="Rectangle 115" width="3.716" height="10.685" transform="translate(1161.393 2806.645) rotate(-167)" fill="#ffb7b7"/>
    <rect id="Rectangle_114" data-name="Rectangle 114" width="3.397" height="9.765" transform="matrix(0.017, 1, -1, 0.017, 1155.495, 2788.585)" fill="#ffc857"/>
    <rect id="Rectangle_113" data-name="Rectangle 113" width="3.358" height="9.653" transform="matrix(0.485, -0.875, 0.875, 0.485, 1157.849, 2753.167)" fill="#9984d4"/>
    <rect id="Rectangle_108" data-name="Rectangle 108" width="3.357" height="9.652" transform="translate(1126.377 2968.225) rotate(-120)" fill="#ff9747"/>
    <ellipse id="Ellipse_103" data-name="Ellipse 103" cx="2.359" cy="2.359" rx="2.359" ry="2.359" transform="matrix(-0.891, 0.454, -0.454, -0.891, 1279.961, 2712.703)" fill="#ff9747"/>
    <circle id="Ellipse_101" data-name="Ellipse 101" cx="2.273" cy="2.273" r="2.273" transform="matrix(-0.809, -0.588, 0.588, -0.809, 1264.857, 2627.585)" fill="#ff9747"/>
    <circle id="Ellipse_99" data-name="Ellipse 99" cx="2.859" cy="2.859" r="2.859" transform="matrix(-0.819, -0.574, 0.574, -0.819, 1205.707, 2726.267)" fill="#ffb7b7"/>
    <ellipse id="Ellipse_98" data-name="Ellipse 98" cx="2.542" cy="2.542" rx="2.542" ry="2.542" transform="matrix(-0.985, 0.174, -0.174, -0.985, 1211.723, 2652.04)" fill="#ffc857"/>
    <ellipse id="Ellipse_97" data-name="Ellipse 97" cx="2.517" cy="2.517" rx="2.517" ry="2.517" transform="matrix(-0.875, 0.485, -0.485, -0.875, 1208.65, 2589.043)" fill="#9984d4"/>
    <circle id="Ellipse_96" data-name="Ellipse 96" cx="2.366" cy="2.366" r="2.366" transform="matrix(-0.438, 0.899, -0.899, -0.438, 1240.692, 2507.63)" fill="#e96390"/>
    <circle id="Ellipse_91" data-name="Ellipse 91" cx="2.984" cy="2.984" r="2.984" transform="translate(1155.048 2716.654) rotate(-39)" fill="#ffb7b7"/>
    <ellipse id="Ellipse_90" data-name="Ellipse 90" cx="2.508" cy="2.508" rx="2.508" ry="2.508" transform="matrix(-0.883, -0.469, 0.469, -0.883, 1169.05, 2681.202)" fill="#e96390"/>
    <ellipse id="Ellipse_89" data-name="Ellipse 89" cx="2.331" cy="2.331" rx="2.331" ry="2.331" transform="translate(1172.839 2613.746) rotate(155)" fill="#ffc857"/>
    <rect id="Rectangle_106" data-name="Rectangle 106" width="3.411" height="9.806" transform="translate(1267.851 2590.668) rotate(-19)" fill="#ffc857"/>
    <rect id="Rectangle_105" data-name="Rectangle 105" width="3.201" height="9.202" transform="matrix(-0.995, 0.105, -0.105, -0.995, 1270.345, 2562.564)" fill="#e96390"/>
    <rect id="Rectangle_104" data-name="Rectangle 104" width="3.185" height="9.156" transform="translate(1260.319 2536.235) rotate(163)" fill="#ff9747"/>
    <rect id="Rectangle_103" data-name="Rectangle 103" width="3.753" height="10.791" transform="matrix(-0.788, 0.616, -0.616, -0.788, 1277.263, 2498.237)" fill="#e96390"/>
    <rect id="Rectangle_102" data-name="Rectangle 102" width="3.807" height="10.944" transform="translate(1265.608 2458.188) rotate(-17)" fill="#e96390"/>
    <rect id="Rectangle_100" data-name="Rectangle 100" width="3.162" height="9.092" transform="matrix(-0.788, 0.616, -0.616, -0.788, 1254.803, 2760.313)" fill="#ffc857"/>
    <rect id="Rectangle_99" data-name="Rectangle 99" width="3.213" height="9.237" transform="matrix(-0.978, 0.208, -0.208, -0.978, 1209.86, 2703.389)" fill="#ff9747"/>
    <rect id="Rectangle_98" data-name="Rectangle 98" width="3.563" height="10.243" transform="matrix(-0.485, -0.875, 0.875, -0.485, 1213.327, 2613.861)" fill="#ffb7b7"/>
    <rect id="Rectangle_97" data-name="Rectangle 97" width="3.809" height="10.95" transform="matrix(-0.454, 0.891, -0.891, -0.454, 1258.95, 2563.515)" fill="#e96390"/>
    <rect id="Rectangle_96" data-name="Rectangle 96" width="3.957" height="11.377" transform="translate(1218.372 2473.474) rotate(-120)" fill="#ffc857"/>
    <rect id="Rectangle_95" data-name="Rectangle 95" width="3.406" height="9.791" transform="matrix(-0.891, 0.454, -0.454, -0.891, 1202.369, 2655.472)" fill="#ff9747"/>
    <rect id="Rectangle_94" data-name="Rectangle 94" width="3.57" height="10.263" transform="translate(1192.22 2579.348) rotate(-131)" fill="#ff9747"/>
    <rect id="Rectangle_93" data-name="Rectangle 93" width="3.177" height="9.135" transform="translate(1179.545 2566.572) rotate(-79)" fill="#e96390"/>
    <rect id="Rectangle_92" data-name="Rectangle 92" width="3.409" height="9.801" transform="translate(1178.021 2506.617) rotate(-120)" fill="#ffc857"/>
    <rect id="Rectangle_91" data-name="Rectangle 91" width="3.317" height="9.536" transform="translate(1194.023 2496.315) rotate(173)" fill="#ffb7b7"/>
    <ellipse id="Ellipse_114" data-name="Ellipse 114" cx="2.861" cy="2.861" rx="2.861" ry="2.861" transform="translate(1257.954 2449.529) rotate(169)" fill="#ff9747"/>
    <ellipse id="Ellipse_106" data-name="Ellipse 106" cx="2.892" cy="2.892" rx="2.892" ry="2.892" transform="matrix(-0.545, 0.839, -0.839, -0.545, 1247.634, 2452.801)" fill="#9984d4"/>
    <ellipse id="Ellipse_100" data-name="Ellipse 100" cx="2.392" cy="2.392" rx="2.392" ry="2.392" transform="translate(1144.101 2360.476) rotate(87)" fill="#ffc857"/>
    <rect id="Rectangle_120" data-name="Rectangle 120" width="3.302" height="9.494" transform="translate(1208.775 2385.352) rotate(177)" fill="#9984d4"/>
    <rect id="Rectangle_119" data-name="Rectangle 119" width="3.151" height="9.059" transform="translate(1229.648 2362.445) rotate(138)" fill="#9984d4"/>
    <rect id="Rectangle_112" data-name="Rectangle 112" width="3.08" height="8.856" transform="translate(1161.199 2449.613) rotate(-93)" fill="#ff9747"/>
    <rect id="Rectangle_111" data-name="Rectangle 111" width="3.741" height="10.755" transform="matrix(-0.921, 0.391, -0.391, -0.921, 1189.805, 2430.254)" fill="#ffb7b7"/>
    <rect id="Rectangle_110" data-name="Rectangle 110" width="3.529" height="10.147" transform="matrix(0.914, -0.407, 0.407, 0.914, 1168.89, 2368.042)" fill="#ff9747"/>
    <rect id="Rectangle_109" data-name="Rectangle 109" width="3.193" height="9.179" transform="translate(1161.602 2361.041) rotate(-79)" fill="#ffb7b7"/>
    <rect id="Rectangle_101" data-name="Rectangle 101" width="3.124" height="8.981" transform="matrix(-0.259, -0.966, 0.966, -0.259, 1119.387, 2395.016)" fill="#ffc857"/>
    <circle id="Ellipse_116" data-name="Ellipse 116" cx="2.816" cy="2.816" r="2.816" transform="matrix(-0.966, -0.259, 0.259, -0.966, 1285.95, 2849.223)" fill="#9984d4"/>
    <rect id="Rectangle_127" data-name="Rectangle 127" width="3.602" height="10.355" transform="translate(1290.38 2797.606) rotate(140)" fill="#ffb7b7"/>
    <rect id="Rectangle_107" data-name="Rectangle 107" width="3.9" height="11.213" transform="matrix(-0.891, 0.454, -0.454, -0.891, 1297.07, 2703.802)" fill="#ffb7b7"/>
  </g>
</svg>
