<svg xmlns="http://www.w3.org/2000/svg" width="142.668" height="207.419" viewBox="0 0 142.668 207.419">
  <g id="Group_93" data-name="Group 93" transform="translate(0 -5399.29)">
    <circle id="Ellipse_137" data-name="Ellipse 137" cx="2.351" cy="2.351" r="2.351" transform="matrix(-0.695, 0.719, -0.719, -0.695, 122.794, 5488.296)" fill="#ffb7b7"/>
    <ellipse id="Ellipse_138" data-name="Ellipse 138" cx="2.686" cy="2.686" rx="2.686" ry="2.686" transform="translate(84.372 5446.926) rotate(120)" fill="#ff9747"/>
    <ellipse id="Ellipse_139" data-name="Ellipse 139" cx="2.359" cy="2.359" rx="2.359" ry="2.359" transform="matrix(-0.891, 0.454, -0.454, -0.891, 49.099, 5495.614)" fill="#ff9747"/>
    <circle id="Ellipse_140" data-name="Ellipse 140" cx="2.807" cy="2.807" r="2.807" transform="matrix(0.809, -0.588, 0.588, 0.809, 63.587, 5436.407)" fill="#9984d4"/>
    <circle id="Ellipse_141" data-name="Ellipse 141" cx="2.984" cy="2.984" r="2.984" transform="translate(87.856 5421.591) rotate(-39)" fill="#ffb7b7"/>
    <rect id="Rectangle_172" data-name="Rectangle 172" width="3.928" height="11.292" transform="matrix(-0.719, 0.695, -0.695, -0.719, 109.434, 5467.67)" fill="#ffc857"/>
    <rect id="Rectangle_173" data-name="Rectangle 173" width="3.9" height="11.213" transform="matrix(-0.891, 0.454, -0.454, -0.891, 66.209, 5486.712)" fill="#ffb7b7"/>
    <rect id="Rectangle_174" data-name="Rectangle 174" width="3.213" height="9.237" transform="matrix(-0.978, 0.208, -0.208, -0.978, 142.668, 5408.326)" fill="#ff9747"/>
    <rect id="Rectangle_175" data-name="Rectangle 175" width="3.217" height="9.25" transform="translate(30.806 5412.825) rotate(-20)" fill="#e96390"/>
    <rect id="Rectangle_176" data-name="Rectangle 176" width="3.95" height="11.355" transform="translate(8.561 5411.063) rotate(-19)" fill="#ffc857"/>
    <ellipse id="Ellipse_142" data-name="Ellipse 142" cx="2.68" cy="2.68" rx="2.68" ry="2.68" transform="translate(52.923 5590.444) rotate(155)" fill="#ffc857"/>
    <ellipse id="Ellipse_143" data-name="Ellipse 143" cx="2.791" cy="2.791" rx="2.791" ry="2.791" transform="matrix(-0.839, 0.545, -0.545, -0.839, 58.996, 5574.242)" fill="#ffb7b7"/>
    <ellipse id="Ellipse_144" data-name="Ellipse 144" cx="2.978" cy="2.978" rx="2.978" ry="2.978" transform="translate(44.137 5540.637) rotate(-161)" fill="#9984d4"/>
    <ellipse id="Ellipse_145" data-name="Ellipse 145" cx="2.905" cy="2.905" rx="2.905" ry="2.905" transform="matrix(0.105, -0.995, 0.995, 0.105, 28.735, 5451.309)" fill="#ff9747"/>
    <circle id="Ellipse_146" data-name="Ellipse 146" cx="2.791" cy="2.791" r="2.791" transform="matrix(-0.574, 0.819, -0.819, -0.574, 11.428, 5565.803)" fill="#ff9747"/>
    <circle id="Ellipse_147" data-name="Ellipse 147" cx="2.774" cy="2.774" r="2.774" transform="translate(4.123 5552.35) rotate(-138)" fill="#9984d4"/>
    <ellipse id="Ellipse_148" data-name="Ellipse 148" cx="2.432" cy="2.432" rx="2.432" ry="2.432" transform="translate(17.348 5483.472) rotate(110)" fill="#ff9747"/>
    <rect id="Rectangle_177" data-name="Rectangle 177" width="3.185" height="9.155" transform="matrix(-0.545, -0.839, 0.839, -0.545, 64.884, 5606.709)" fill="#9984d4"/>
    <rect id="Rectangle_178" data-name="Rectangle 178" width="3.293" height="9.467" transform="matrix(-0.07, 0.998, -0.998, -0.07, 99.194, 5586.283)" fill="#9984d4"/>
    <rect id="Rectangle_179" data-name="Rectangle 179" width="3.957" height="11.377" transform="matrix(0.616, -0.788, 0.788, 0.616, 9.91, 5500.874)" fill="#ffc857"/>
    <rect id="Rectangle_180" data-name="Rectangle 180" width="3.468" height="9.971" transform="translate(8.55 5468.652) rotate(-115)" fill="#9984d4"/>
  </g>
</svg>
