<svg xmlns="http://www.w3.org/2000/svg" width="225.681" height="230.903" viewBox="0 0 225.681 230.903">
  <g id="Group_92" data-name="Group 92" transform="translate(79.799 -72.36) rotate(16)">
    <ellipse id="Ellipse_116" data-name="Ellipse 116" cx="2.816" cy="2.816" rx="2.816" ry="2.816" transform="translate(90.223 88.745) rotate(-171)" fill="#9984d4"/>
    <ellipse id="Ellipse_113" data-name="Ellipse 113" cx="2.455" cy="2.455" rx="2.455" ry="2.455" transform="matrix(0.391, 0.921, -0.921, 0.391, 31.02, 243.47)" fill="#ff9747"/>
    <ellipse id="Ellipse_111" data-name="Ellipse 111" cx="2.721" cy="2.721" rx="2.721" ry="2.721" transform="matrix(0.438, 0.899, -0.899, 0.438, 4.891, 287.123)" fill="#ffb7b7"/>
    <rect id="Rectangle_127" data-name="Rectangle 127" width="3.602" height="10.355" transform="matrix(-0.438, -0.899, 0.899, -0.438, 64.85, 136.678)" fill="#ffb7b7"/>
    <ellipse id="Ellipse_63" data-name="Ellipse 63" cx="2.978" cy="2.978" rx="2.978" ry="2.978" transform="matrix(-0.996, -0.087, 0.087, -0.996, 176.326, 131.616)" fill="#9984d4"/>
    <ellipse id="Ellipse_62" data-name="Ellipse 62" cx="2.905" cy="2.905" rx="2.905" ry="2.905" transform="matrix(-0.309, 0.951, -0.951, -0.309, 131.969, 202.82)" fill="#ff9747"/>
    <ellipse id="Ellipse_61" data-name="Ellipse 61" cx="2.545" cy="2.545" rx="2.545" ry="2.545" transform="matrix(-0.995, 0.105, -0.105, -0.995, 123.813, 239.753)" fill="#ffc857"/>
    <circle id="Ellipse_60" data-name="Ellipse 60" cx="2.32" cy="2.32" r="2.32" transform="translate(115.281 277.384) rotate(-65)" fill="#e96390"/>
    <ellipse id="Ellipse_57" data-name="Ellipse 57" cx="2.791" cy="2.791" rx="2.791" ry="2.791" transform="translate(151.721 90.454) rotate(-101)" fill="#ff9747"/>
    <ellipse id="Ellipse_56" data-name="Ellipse 56" cx="2.774" cy="2.774" rx="2.774" ry="2.774" transform="matrix(-0.951, 0.309, -0.309, -0.951, 146.77, 103.984)" fill="#9984d4"/>
    <circle id="Ellipse_55" data-name="Ellipse 55" cx="2.922" cy="2.922" r="2.922" transform="matrix(-0.309, 0.951, -0.951, -0.309, 110.436, 150.154)" fill="#ff9747"/>
    <ellipse id="Ellipse_54" data-name="Ellipse 54" cx="2.432" cy="2.432" rx="2.432" ry="2.432" transform="matrix(0.07, -0.998, 0.998, 0.07, 124.269, 166.67)" fill="#ff9747"/>
    <ellipse id="Ellipse_53" data-name="Ellipse 53" cx="2.527" cy="2.527" rx="2.527" ry="2.527" transform="translate(74.6 199.87) rotate(172)" fill="#9984d4"/>
    <ellipse id="Ellipse_52" data-name="Ellipse 52" cx="2.871" cy="2.871" rx="2.871" ry="2.871" transform="translate(65.406 217.409) rotate(73)" fill="#ffb7b7"/>
    <circle id="Ellipse_51" data-name="Ellipse 51" cx="2.598" cy="2.598" r="2.598" transform="matrix(-0.087, -0.996, 0.996, -0.087, 47.997, 271.027)" fill="#ffc857"/>
    <circle id="Ellipse_50" data-name="Ellipse 50" cx="2.872" cy="2.872" r="2.872" transform="translate(50.911 285.319) rotate(39)" fill="#e96390"/>
    <rect id="Rectangle_60" data-name="Rectangle 60" width="3.957" height="11.377" transform="translate(140.444 145.335) rotate(76)" fill="#ffc857"/>
    <rect id="Rectangle_59" data-name="Rectangle 59" width="3.468" height="9.971" transform="translate(131.747 171.38) rotate(139)" fill="#9984d4"/>
    <rect id="Rectangle_56" data-name="Rectangle 56" width="3.288" height="9.452" transform="matrix(-0.985, 0.174, -0.174, -0.985, 130.788, 47.91)" fill="#9984d4"/>
    <ellipse id="Ellipse_67" data-name="Ellipse 67" cx="2.705" cy="2.705" rx="2.705" ry="2.705" transform="matrix(0.454, 0.891, -0.891, 0.454, 183.918, 191.936)" fill="#ff9747"/>
    <ellipse id="Ellipse_60-2" data-name="Ellipse 60" cx="2.32" cy="2.32" rx="2.32" ry="2.32" transform="matrix(-0.883, 0.469, -0.469, -0.883, 193.548, 218.107)" fill="#e96390"/>
    <rect id="Rectangle_63" data-name="Rectangle 63" width="3.41" height="9.804" transform="translate(201.445 181.71) rotate(31)" fill="#9984d4"/>
    <rect id="Rectangle_70" data-name="Rectangle 70" width="3.111" height="8.945" transform="matrix(0.545, 0.839, -0.839, 0.545, 178.633, 258.447)" fill="#e96390"/>
  </g>
</svg>
