<svg xmlns="http://www.w3.org/2000/svg" width="449.572" height="492.469" viewBox="0 0 449.572 492.469">
  <g id="Group_56" data-name="Group 56" transform="translate(34.646 35.309)">
    <circle id="Ellipse_115" data-name="Ellipse 115" cx="2.944" cy="2.944" r="2.944" transform="matrix(-0.588, -0.809, 0.809, -0.588, 387.55, 91.053)" fill="#ff9747"/>
    <ellipse id="Ellipse_114" data-name="Ellipse 114" cx="2.861" cy="2.861" rx="2.861" ry="2.861" transform="translate(363.222 34.915) rotate(169)" fill="#ff9747"/>
    <circle id="Ellipse_113" data-name="Ellipse 113" cx="2.455" cy="2.455" r="2.455" transform="translate(407.986 4.15) rotate(-43)" fill="#ff9747"/>
    <circle id="Ellipse_108" data-name="Ellipse 108" cx="2.701" cy="2.701" r="2.701" transform="matrix(-0.809, -0.588, 0.588, -0.809, 343.619, 126.101)" fill="#ff9747"/>
    <ellipse id="Ellipse_107" data-name="Ellipse 107" cx="2.529" cy="2.529" rx="2.529" ry="2.529" transform="translate(309.898 83.739) rotate(-87)" fill="#9984d4"/>
    <ellipse id="Ellipse_106" data-name="Ellipse 106" cx="2.892" cy="2.892" rx="2.892" ry="2.892" transform="matrix(-0.545, 0.839, -0.839, -0.545, 352.902, 38.188)" fill="#9984d4"/>
    <circle id="Ellipse_105" data-name="Ellipse 105" cx="2.351" cy="2.351" r="2.351" transform="matrix(-0.695, 0.719, -0.719, -0.695, 298.411, 260.772)" fill="#ffb7b7"/>
    <ellipse id="Ellipse_104" data-name="Ellipse 104" cx="2.686" cy="2.686" rx="2.686" ry="2.686" transform="translate(259.989 219.402) rotate(120)" fill="#ff9747"/>
    <ellipse id="Ellipse_103" data-name="Ellipse 103" cx="2.359" cy="2.359" rx="2.359" ry="2.359" transform="matrix(-0.891, 0.454, -0.454, -0.891, 224.716, 268.089)" fill="#ff9747"/>
    <circle id="Ellipse_102" data-name="Ellipse 102" cx="2.807" cy="2.807" r="2.807" transform="matrix(0.809, -0.588, 0.588, 0.809, 239.204, 208.883)" fill="#9984d4"/>
    <circle id="Ellipse_101" data-name="Ellipse 101" cx="2.273" cy="2.273" r="2.273" transform="matrix(-0.809, -0.588, 0.588, -0.809, 209.613, 182.972)" fill="#ff9747"/>
    <ellipse id="Ellipse_98" data-name="Ellipse 98" cx="2.542" cy="2.542" rx="2.542" ry="2.542" transform="matrix(-0.985, 0.174, -0.174, -0.985, 156.478, 207.426)" fill="#ffc857"/>
    <ellipse id="Ellipse_97" data-name="Ellipse 97" cx="2.517" cy="2.517" rx="2.517" ry="2.517" transform="matrix(-0.875, 0.485, -0.485, -0.875, 153.405, 144.43)" fill="#9984d4"/>
    <circle id="Ellipse_96" data-name="Ellipse 96" cx="2.366" cy="2.366" r="2.366" transform="matrix(-0.438, 0.899, -0.899, -0.438, 185.448, 63.017)" fill="#e96390"/>
    <circle id="Ellipse_91" data-name="Ellipse 91" cx="2.984" cy="2.984" r="2.984" transform="translate(99.803 272.041) rotate(-39)" fill="#ffb7b7"/>
    <ellipse id="Ellipse_90" data-name="Ellipse 90" cx="2.508" cy="2.508" rx="2.508" ry="2.508" transform="matrix(-0.883, -0.469, 0.469, -0.883, 113.805, 236.589)" fill="#e96390"/>
    <ellipse id="Ellipse_89" data-name="Ellipse 89" cx="2.331" cy="2.331" rx="2.331" ry="2.331" transform="translate(117.594 169.133) rotate(155)" fill="#ffc857"/>
    <ellipse id="Ellipse_87" data-name="Ellipse 87" cx="2.476" cy="2.476" rx="2.476" ry="2.476" transform="matrix(-0.105, 0.995, -0.995, -0.105, 43.888, 222.471)" fill="#e96390"/>
    <ellipse id="Ellipse_86" data-name="Ellipse 86" cx="2.926" cy="2.926" rx="2.926" ry="2.926" transform="matrix(-0.017, 1, -1, -0.017, 80.373, 157.762)" fill="#9984d4"/>
    <circle id="Ellipse_85" data-name="Ellipse 85" cx="2.253" cy="2.253" r="2.253" transform="translate(88.565 127.943) rotate(-30)" fill="#ffb7b7"/>
    <circle id="Ellipse_84" data-name="Ellipse 84" cx="2.375" cy="2.375" r="2.375" transform="matrix(-0.588, 0.809, -0.809, -0.588, 53.134, 89.761)" fill="#e96390"/>
    <ellipse id="Ellipse_83" data-name="Ellipse 83" cx="2.765" cy="2.765" rx="2.765" ry="2.765" transform="translate(52.975 27.888) rotate(-81)" fill="#ff9747"/>
    <circle id="Ellipse_81" data-name="Ellipse 81" cx="2.658" cy="2.658" r="2.658" transform="translate(10.896 224.958) rotate(-60)" fill="#e96390"/>
    <ellipse id="Ellipse_80" data-name="Ellipse 80" cx="2.864" cy="2.864" rx="2.864" ry="2.864" transform="translate(17.657 201.054) rotate(-90)" fill="#9984d4"/>
    <circle id="Ellipse_79" data-name="Ellipse 79" cx="2.711" cy="2.711" r="2.711" transform="translate(-2.164 185.872) rotate(-132)" fill="#ffc857"/>
    <rect id="Rectangle_127" data-name="Rectangle 127" width="3.602" height="10.355" transform="translate(405.46 126.992) rotate(140)" fill="#ffb7b7"/>
    <rect id="Rectangle_126" data-name="Rectangle 126" width="3.321" height="9.549" transform="matrix(0.454, -0.891, 0.891, 0.454, 378.786, 112.702)" fill="#e96390"/>
    <rect id="Rectangle_122" data-name="Rectangle 122" width="3.777" height="10.859" transform="matrix(0.719, -0.695, 0.695, 0.719, 313.903, 111.873)" fill="#e96390"/>
    <rect id="Rectangle_121" data-name="Rectangle 121" width="3.012" height="8.659" transform="translate(349.49 15.343) rotate(132)" fill="#ff9747"/>
    <rect id="Rectangle_117" data-name="Rectangle 117" width="3.928" height="11.292" transform="matrix(-0.719, 0.695, -0.695, -0.719, 285.051, 240.146)" fill="#ffc857"/>
    <rect id="Rectangle_116" data-name="Rectangle 116" width="3.765" height="10.823" transform="translate(274.346 171.04) rotate(-132)" fill="#ffb7b7"/>
    <rect id="Rectangle_115" data-name="Rectangle 115" width="3.716" height="10.685" transform="translate(276.472 136.031) rotate(-167)" fill="#ffb7b7"/>
    <rect id="Rectangle_114" data-name="Rectangle 114" width="3.397" height="9.765" transform="matrix(0.017, 1, -1, 0.017, 270.575, 117.972)" fill="#ffc857"/>
    <rect id="Rectangle_113" data-name="Rectangle 113" width="3.358" height="9.653" transform="matrix(0.485, -0.875, 0.875, 0.485, 272.929, 82.554)" fill="#9984d4"/>
    <rect id="Rectangle_112" data-name="Rectangle 112" width="3.08" height="8.856" transform="translate(266.467 35) rotate(-93)" fill="#ff9747"/>
    <rect id="Rectangle_111" data-name="Rectangle 111" width="3.741" height="10.755" transform="matrix(-0.921, 0.391, -0.391, -0.921, 295.072, 15.641)" fill="#ffb7b7"/>
    <rect id="Rectangle_107" data-name="Rectangle 107" width="3.9" height="11.213" transform="matrix(-0.891, 0.454, -0.454, -0.891, 241.826, 259.189)" fill="#ffb7b7"/>
    <rect id="Rectangle_106" data-name="Rectangle 106" width="3.411" height="9.806" transform="translate(212.605 146.054) rotate(-19)" fill="#ffc857"/>
    <rect id="Rectangle_105" data-name="Rectangle 105" width="3.201" height="9.202" transform="matrix(-0.995, 0.105, -0.105, -0.995, 215.101, 117.951)" fill="#e96390"/>
    <rect id="Rectangle_104" data-name="Rectangle 104" width="3.185" height="9.156" transform="translate(205.074 91.622) rotate(163)" fill="#ff9747"/>
    <rect id="Rectangle_103" data-name="Rectangle 103" width="3.753" height="10.791" transform="matrix(-0.788, 0.616, -0.616, -0.788, 222.018, 53.624)" fill="#e96390"/>
    <rect id="Rectangle_102" data-name="Rectangle 102" width="3.807" height="10.944" transform="translate(210.363 13.575) rotate(-17)" fill="#e96390"/>
    <rect id="Rectangle_99" data-name="Rectangle 99" width="3.213" height="9.237" transform="matrix(-0.978, 0.208, -0.208, -0.978, 154.615, 258.775)" fill="#ff9747"/>
    <rect id="Rectangle_98" data-name="Rectangle 98" width="3.563" height="10.243" transform="matrix(-0.485, -0.875, 0.875, -0.485, 158.082, 169.248)" fill="#ffb7b7"/>
    <rect id="Rectangle_97" data-name="Rectangle 97" width="3.809" height="10.95" transform="matrix(-0.454, 0.891, -0.891, -0.454, 203.706, 118.902)" fill="#e96390"/>
    <rect id="Rectangle_96" data-name="Rectangle 96" width="3.957" height="11.377" transform="translate(163.126 28.861) rotate(-120)" fill="#ffc857"/>
    <rect id="Rectangle_95" data-name="Rectangle 95" width="3.406" height="9.791" transform="matrix(-0.891, 0.454, -0.454, -0.891, 147.124, 210.859)" fill="#ff9747"/>
    <rect id="Rectangle_94" data-name="Rectangle 94" width="3.57" height="10.263" transform="translate(136.975 134.734) rotate(-131)" fill="#ff9747"/>
    <rect id="Rectangle_93" data-name="Rectangle 93" width="3.177" height="9.135" transform="translate(124.3 121.959) rotate(-79)" fill="#e96390"/>
    <rect id="Rectangle_92" data-name="Rectangle 92" width="3.409" height="9.801" transform="translate(122.776 62.003) rotate(-120)" fill="#ffc857"/>
    <rect id="Rectangle_91" data-name="Rectangle 91" width="3.317" height="9.536" transform="translate(138.778 51.702) rotate(173)" fill="#ffb7b7"/>
    <rect id="Rectangle_87" data-name="Rectangle 87" width="3.217" height="9.25" transform="translate(42.752 263.274) rotate(-20)" fill="#e96390"/>
    <rect id="Rectangle_86" data-name="Rectangle 86" width="3.312" height="9.522" transform="translate(80.337 198.843) rotate(-104)" fill="#ffb7b7"/>
    <rect id="Rectangle_85" data-name="Rectangle 85" width="3.88" height="11.154" transform="matrix(-0.035, -0.999, 0.999, -0.035, 69.287, 75.545)" fill="#ff9747"/>
    <rect id="Rectangle_81" data-name="Rectangle 81" width="3.95" height="11.355" transform="translate(20.508 261.513) rotate(-19)" fill="#ffc857"/>
    <rect id="Rectangle_80" data-name="Rectangle 80" width="3.384" height="9.728" transform="matrix(0.454, -0.891, 0.891, 0.454, 0.83, 130.637)" fill="#9984d4"/>
    <rect id="Rectangle_78" data-name="Rectangle 78" width="3.043" height="8.75" transform="matrix(-0.788, 0.616, -0.616, -0.788, 11.625, 82.167)" fill="#e96390"/>
    <rect id="Rectangle_77" data-name="Rectangle 77" width="3.196" height="9.189" transform="matrix(-0.174, -0.985, 0.985, -0.174, 21.1, 54.499)" fill="#ffc857"/>
    <rect id="Rectangle_76" data-name="Rectangle 76" width="3.058" height="8.791" transform="matrix(0.788, -0.616, 0.616, 0.788, 30.577, 9.523)" fill="#ff9747"/>
    <ellipse id="Ellipse_65" data-name="Ellipse 65" cx="2.68" cy="2.68" rx="2.68" ry="2.68" transform="translate(64.87 440.893) rotate(155)" fill="#ffc857"/>
    <ellipse id="Ellipse_64" data-name="Ellipse 64" cx="2.791" cy="2.791" rx="2.791" ry="2.791" transform="matrix(-0.839, 0.545, -0.545, -0.839, 70.943, 424.692)" fill="#ffb7b7"/>
    <ellipse id="Ellipse_63" data-name="Ellipse 63" cx="2.978" cy="2.978" rx="2.978" ry="2.978" transform="translate(56.083 391.087) rotate(-161)" fill="#9984d4"/>
    <ellipse id="Ellipse_62" data-name="Ellipse 62" cx="2.905" cy="2.905" rx="2.905" ry="2.905" transform="matrix(0.105, -0.995, 0.995, 0.105, 40.682, 301.759)" fill="#ff9747"/>
    <circle id="Ellipse_57" data-name="Ellipse 57" cx="2.791" cy="2.791" r="2.791" transform="matrix(-0.574, 0.819, -0.819, -0.574, 23.375, 416.253)" fill="#ff9747"/>
    <circle id="Ellipse_56" data-name="Ellipse 56" cx="2.774" cy="2.774" r="2.774" transform="translate(16.07 402.8) rotate(-138)" fill="#9984d4"/>
    <ellipse id="Ellipse_55" data-name="Ellipse 55" cx="2.922" cy="2.922" rx="2.922" ry="2.922" transform="matrix(0.105, -0.995, 0.995, 0.105, -0.443, 341.109)" fill="#ff9747"/>
    <ellipse id="Ellipse_54" data-name="Ellipse 54" cx="2.432" cy="2.432" rx="2.432" ry="2.432" transform="translate(29.294 333.922) rotate(110)" fill="#ff9747"/>
    <rect id="Rectangle_67" data-name="Rectangle 67" width="3.185" height="9.155" transform="matrix(-0.545, -0.839, 0.839, -0.545, 76.831, 457.159)" fill="#9984d4"/>
    <rect id="Rectangle_66" data-name="Rectangle 66" width="3.293" height="9.467" transform="matrix(-0.07, 0.998, -0.998, -0.07, 111.141, 436.732)" fill="#9984d4"/>
    <rect id="Rectangle_60" data-name="Rectangle 60" width="3.957" height="11.377" transform="matrix(0.616, -0.788, 0.788, 0.616, 21.856, 351.324)" fill="#ffc857"/>
    <rect id="Rectangle_59" data-name="Rectangle 59" width="3.468" height="9.971" transform="translate(24.434 335.212) rotate(-115)" fill="#9984d4"/>
    <ellipse id="Ellipse_112" data-name="Ellipse 112" cx="2.334" cy="2.334" rx="2.334" ry="2.334" transform="translate(379.191 -26.892) rotate(-141)" fill="#ffc857"/>
    <circle id="Ellipse_95" data-name="Ellipse 95" cx="2.416" cy="2.416" r="2.416" transform="translate(202.639 -7.897) rotate(135)" fill="#9984d4"/>
    <ellipse id="Ellipse_88" data-name="Ellipse 88" cx="2.278" cy="2.278" rx="2.278" ry="2.278" transform="matrix(-0.407, -0.914, 0.914, -0.407, 130.229, 0.156)" fill="#ffc857"/>
    <ellipse id="Ellipse_82" data-name="Ellipse 82" cx="2.514" cy="2.514" rx="2.514" ry="2.514" transform="translate(94.698 -7.88) rotate(-172)" fill="#e96390"/>
    <ellipse id="Ellipse_78" data-name="Ellipse 78" cx="2.761" cy="2.761" rx="2.761" ry="2.761" transform="matrix(-0.966, -0.259, 0.259, -0.966, 20.983, -28.547)" fill="#ffc857"/>
    <ellipse id="Ellipse_74" data-name="Ellipse 74" cx="2.787" cy="2.787" rx="2.787" ry="2.787" transform="translate(-26.313 159.983) rotate(-13)" fill="#9984d4"/>
    <ellipse id="Ellipse_72" data-name="Ellipse 72" cx="2.984" cy="2.984" rx="2.984" ry="2.984" transform="matrix(0.998, -0.07, 0.07, 0.998, -34.646, -22.975)" fill="#ff9747"/>
    <rect id="Rectangle_101" data-name="Rectangle 101" width="3.124" height="8.981" transform="matrix(-0.259, -0.966, 0.966, -0.259, 224.655, -19.598)" fill="#ffc857"/>
    <rect id="Rectangle_79" data-name="Rectangle 79" width="3.027" height="8.703" transform="matrix(0.087, -0.996, 0.996, 0.087, -14.045, 105.903)" fill="#ffc857"/>
    <rect id="Rectangle_75" data-name="Rectangle 75" width="3.513" height="10.099" transform="matrix(-0.208, 0.978, -0.978, -0.208, -21.89, 223.985)" fill="#ff9747"/>
    <rect id="Rectangle_72" data-name="Rectangle 72" width="3.922" height="11.275" transform="matrix(-0.921, -0.391, 0.391, -0.921, -23.297, 66.062)" fill="#e96390"/>
    <rect id="Rectangle_71" data-name="Rectangle 71" width="3.373" height="9.697" transform="translate(-28.507 50.671) rotate(-110)" fill="#ffc857"/>
    <rect id="Rectangle_56" data-name="Rectangle 56" width="3.288" height="9.452" transform="translate(-22.91 451.239) rotate(-146)" fill="#9984d4"/>
  </g>
</svg>
