<svg xmlns="http://www.w3.org/2000/svg" width="409.274" height="538.829" viewBox="0 0 409.274 538.829">
  <g id="Group_55" data-name="Group 55" transform="translate(-879.725 0)">
    <ellipse id="Ellipse_109" data-name="Ellipse 109" cx="2.525" cy="2.525" rx="2.525" ry="2.525" transform="translate(1260.078 348.662) rotate(-93)" fill="#9984d4"/>
    <ellipse id="Ellipse_107" data-name="Ellipse 107" cx="2.529" cy="2.529" rx="2.529" ry="2.529" transform="translate(1263.982 161.673) rotate(-87)" fill="#9984d4"/>
    <circle id="Ellipse_105" data-name="Ellipse 105" cx="2.351" cy="2.351" r="2.351" transform="matrix(-0.695, 0.719, -0.719, -0.695, 1252.494, 338.706)" fill="#ffb7b7"/>
    <ellipse id="Ellipse_104" data-name="Ellipse 104" cx="2.686" cy="2.686" rx="2.686" ry="2.686" transform="translate(1214.073 297.336) rotate(120)" fill="#ff9747"/>
    <ellipse id="Ellipse_103" data-name="Ellipse 103" cx="2.359" cy="2.359" rx="2.359" ry="2.359" transform="matrix(-0.891, 0.454, -0.454, -0.891, 1178.799, 346.024)" fill="#ff9747"/>
    <circle id="Ellipse_102" data-name="Ellipse 102" cx="2.807" cy="2.807" r="2.807" transform="matrix(0.809, -0.588, 0.588, 0.809, 1193.287, 286.817)" fill="#9984d4"/>
    <circle id="Ellipse_101" data-name="Ellipse 101" cx="2.273" cy="2.273" r="2.273" transform="matrix(-0.809, -0.588, 0.588, -0.809, 1163.696, 260.906)" fill="#ff9747"/>
    <ellipse id="Ellipse_100" data-name="Ellipse 100" cx="2.392" cy="2.392" rx="2.392" ry="2.392" transform="translate(1203.452 23.797) rotate(87)" fill="#ffc857"/>
    <circle id="Ellipse_99" data-name="Ellipse 99" cx="2.859" cy="2.859" r="2.859" transform="matrix(-0.819, -0.574, 0.574, -0.819, 1104.545, 359.588)" fill="#ffb7b7"/>
    <ellipse id="Ellipse_98" data-name="Ellipse 98" cx="2.542" cy="2.542" rx="2.542" ry="2.542" transform="matrix(-0.985, 0.174, -0.174, -0.985, 1110.562, 285.36)" fill="#ffc857"/>
    <ellipse id="Ellipse_97" data-name="Ellipse 97" cx="2.517" cy="2.517" rx="2.517" ry="2.517" transform="matrix(-0.875, 0.485, -0.485, -0.875, 1107.488, 222.364)" fill="#9984d4"/>
    <circle id="Ellipse_96" data-name="Ellipse 96" cx="2.366" cy="2.366" r="2.366" transform="matrix(-0.438, 0.899, -0.899, -0.438, 1139.531, 140.951)" fill="#e96390"/>
    <circle id="Ellipse_95" data-name="Ellipse 95" cx="2.416" cy="2.416" r="2.416" transform="translate(1156.723 70.037) rotate(135)" fill="#9984d4"/>
    <ellipse id="Ellipse_93" data-name="Ellipse 93" cx="2.472" cy="2.472" rx="2.472" ry="2.472" transform="translate(1143.687 5.992) rotate(-104)" fill="#9984d4"/>
    <ellipse id="Ellipse_92" data-name="Ellipse 92" cx="2.599" cy="2.599" rx="2.599" ry="2.599" transform="matrix(-0.469, 0.883, -0.883, -0.469, 1053.143, 380.9)" fill="#ff9747"/>
    <circle id="Ellipse_91" data-name="Ellipse 91" cx="2.984" cy="2.984" r="2.984" transform="translate(1053.886 349.975) rotate(-39)" fill="#ffb7b7"/>
    <ellipse id="Ellipse_90" data-name="Ellipse 90" cx="2.508" cy="2.508" rx="2.508" ry="2.508" transform="matrix(-0.883, -0.469, 0.469, -0.883, 1067.889, 314.523)" fill="#e96390"/>
    <ellipse id="Ellipse_89" data-name="Ellipse 89" cx="2.331" cy="2.331" rx="2.331" ry="2.331" transform="translate(1071.677 247.067) rotate(155)" fill="#ffc857"/>
    <ellipse id="Ellipse_88" data-name="Ellipse 88" cx="2.278" cy="2.278" rx="2.278" ry="2.278" transform="matrix(-0.407, -0.914, 0.914, -0.407, 1084.313, 78.091)" fill="#ffc857"/>
    <ellipse id="Ellipse_87" data-name="Ellipse 87" cx="2.476" cy="2.476" rx="2.476" ry="2.476" transform="matrix(-0.105, 0.995, -0.995, -0.105, 997.972, 300.405)" fill="#e96390"/>
    <ellipse id="Ellipse_86" data-name="Ellipse 86" cx="2.926" cy="2.926" rx="2.926" ry="2.926" transform="matrix(-0.017, 1, -1, -0.017, 1034.456, 235.696)" fill="#9984d4"/>
    <circle id="Ellipse_85" data-name="Ellipse 85" cx="2.253" cy="2.253" r="2.253" transform="translate(1042.649 205.877) rotate(-30)" fill="#ffb7b7"/>
    <circle id="Ellipse_84" data-name="Ellipse 84" cx="2.375" cy="2.375" r="2.375" transform="matrix(-0.588, 0.809, -0.809, -0.588, 1007.217, 167.696)" fill="#e96390"/>
    <ellipse id="Ellipse_83" data-name="Ellipse 83" cx="2.765" cy="2.765" rx="2.765" ry="2.765" transform="translate(1007.059 105.823) rotate(-81)" fill="#ff9747"/>
    <ellipse id="Ellipse_82" data-name="Ellipse 82" cx="2.514" cy="2.514" rx="2.514" ry="2.514" transform="translate(1048.782 70.054) rotate(-172)" fill="#e96390"/>
    <ellipse id="Ellipse_80" data-name="Ellipse 80" cx="2.864" cy="2.864" rx="2.864" ry="2.864" transform="translate(971.741 278.988) rotate(-90)" fill="#9984d4"/>
    <ellipse id="Ellipse_78" data-name="Ellipse 78" cx="2.761" cy="2.761" rx="2.761" ry="2.761" transform="matrix(-0.966, -0.259, 0.259, -0.966, 975.066, 49.387)" fill="#ffc857"/>
    <ellipse id="Ellipse_77" data-name="Ellipse 77" cx="2.281" cy="2.281" rx="2.281" ry="2.281" transform="translate(981.051 7.057) rotate(149)" fill="#e96390"/>
    <ellipse id="Ellipse_73" data-name="Ellipse 73" cx="2.842" cy="2.842" rx="2.842" ry="2.842" transform="matrix(-0.391, 0.921, -0.921, -0.391, 895.369, 192.449)" fill="#9984d4"/>
    <ellipse id="Ellipse_72" data-name="Ellipse 72" cx="2.984" cy="2.984" rx="2.984" ry="2.984" transform="matrix(0.998, -0.07, 0.07, 0.998, 919.437, 54.96)" fill="#ff9747"/>
    <ellipse id="Ellipse_69" data-name="Ellipse 69" cx="2.862" cy="2.862" rx="2.862" ry="2.862" transform="translate(886.82 196.636) rotate(180)" fill="#e96390"/>
    <rect id="Rectangle_124" data-name="Rectangle 124" width="3.069" height="8.822" transform="translate(1268.867 284.354) rotate(-104)" fill="#ff9747"/>
    <rect id="Rectangle_122" data-name="Rectangle 122" width="3.777" height="10.859" transform="matrix(0.719, -0.695, 0.695, 0.719, 1267.986, 189.807)" fill="#e96390"/>
    <rect id="Rectangle_120" data-name="Rectangle 120" width="3.302" height="9.494" transform="translate(1268.126 48.673) rotate(177)" fill="#9984d4"/>
    <rect id="Rectangle_118" data-name="Rectangle 118" width="3.788" height="10.89" transform="translate(1263.194 380.5) rotate(129)" fill="#ffc857"/>
    <rect id="Rectangle_117" data-name="Rectangle 117" width="3.928" height="11.292" transform="matrix(-0.719, 0.695, -0.695, -0.719, 1239.135, 318.08)" fill="#ffc857"/>
    <rect id="Rectangle_116" data-name="Rectangle 116" width="3.765" height="10.823" transform="translate(1228.429 248.974) rotate(-132)" fill="#ffb7b7"/>
    <rect id="Rectangle_115" data-name="Rectangle 115" width="3.716" height="10.685" transform="translate(1230.556 213.965) rotate(-167)" fill="#ffb7b7"/>
    <rect id="Rectangle_114" data-name="Rectangle 114" width="3.397" height="9.765" transform="matrix(0.017, 1, -1, 0.017, 1224.658, 195.906)" fill="#ffc857"/>
    <rect id="Rectangle_113" data-name="Rectangle 113" width="3.358" height="9.653" transform="matrix(0.485, -0.875, 0.875, 0.485, 1227.012, 160.489)" fill="#9984d4"/>
    <rect id="Rectangle_112" data-name="Rectangle 112" width="3.08" height="8.856" transform="translate(1220.55 112.934) rotate(-93)" fill="#ff9747"/>
    <rect id="Rectangle_111" data-name="Rectangle 111" width="3.741" height="10.755" transform="matrix(-0.921, 0.391, -0.391, -0.921, 1249.156, 93.575)" fill="#ffb7b7"/>
    <rect id="Rectangle_110" data-name="Rectangle 110" width="3.529" height="10.147" transform="matrix(0.914, -0.407, 0.407, 0.914, 1228.241, 31.363)" fill="#ff9747"/>
    <rect id="Rectangle_109" data-name="Rectangle 109" width="3.193" height="9.179" transform="translate(1220.953 24.362) rotate(-79)" fill="#ffb7b7"/>
    <rect id="Rectangle_108" data-name="Rectangle 108" width="3.357" height="9.652" transform="translate(1195.541 375.546) rotate(-120)" fill="#ff9747"/>
    <rect id="Rectangle_107" data-name="Rectangle 107" width="3.9" height="11.213" transform="matrix(-0.891, 0.454, -0.454, -0.891, 1195.909, 337.123)" fill="#ffb7b7"/>
    <rect id="Rectangle_106" data-name="Rectangle 106" width="3.411" height="9.806" transform="translate(1166.689 223.989) rotate(-19)" fill="#ffc857"/>
    <rect id="Rectangle_105" data-name="Rectangle 105" width="3.201" height="9.202" transform="matrix(-0.995, 0.105, -0.105, -0.995, 1169.184, 195.885)" fill="#e96390"/>
    <rect id="Rectangle_104" data-name="Rectangle 104" width="3.185" height="9.156" transform="translate(1159.157 169.556) rotate(163)" fill="#ff9747"/>
    <rect id="Rectangle_103" data-name="Rectangle 103" width="3.753" height="10.791" transform="matrix(-0.788, 0.616, -0.616, -0.788, 1176.101, 131.558)" fill="#e96390"/>
    <rect id="Rectangle_102" data-name="Rectangle 102" width="3.807" height="10.944" transform="translate(1164.446 91.509) rotate(-17)" fill="#e96390"/>
    <rect id="Rectangle_101" data-name="Rectangle 101" width="3.124" height="8.981" transform="matrix(-0.259, -0.966, 0.966, -0.259, 1178.738, 58.337)" fill="#ffc857"/>
    <rect id="Rectangle_100" data-name="Rectangle 100" width="3.162" height="9.092" transform="matrix(-0.788, 0.616, -0.616, -0.788, 1153.642, 393.634)" fill="#ffc857"/>
    <rect id="Rectangle_99" data-name="Rectangle 99" width="3.213" height="9.237" transform="matrix(-0.978, 0.208, -0.208, -0.978, 1108.698, 336.709)" fill="#ff9747"/>
    <rect id="Rectangle_98" data-name="Rectangle 98" width="3.563" height="10.243" transform="matrix(-0.485, -0.875, 0.875, -0.485, 1112.165, 247.182)" fill="#ffb7b7"/>
    <rect id="Rectangle_97" data-name="Rectangle 97" width="3.809" height="10.95" transform="matrix(-0.454, 0.891, -0.891, -0.454, 1157.789, 196.836)" fill="#e96390"/>
    <rect id="Rectangle_96" data-name="Rectangle 96" width="3.957" height="11.377" transform="translate(1117.21 106.795) rotate(-120)" fill="#ffc857"/>
    <rect id="Rectangle_95" data-name="Rectangle 95" width="3.406" height="9.791" transform="matrix(-0.891, 0.454, -0.454, -0.891, 1101.207, 288.793)" fill="#ff9747"/>
    <rect id="Rectangle_94" data-name="Rectangle 94" width="3.57" height="10.263" transform="translate(1091.058 212.669) rotate(-131)" fill="#ff9747"/>
    <rect id="Rectangle_93" data-name="Rectangle 93" width="3.177" height="9.135" transform="translate(1078.383 199.893) rotate(-79)" fill="#e96390"/>
    <rect id="Rectangle_92" data-name="Rectangle 92" width="3.409" height="9.801" transform="translate(1076.859 139.938) rotate(-120)" fill="#ffc857"/>
    <rect id="Rectangle_91" data-name="Rectangle 91" width="3.317" height="9.536" transform="translate(1092.861 129.636) rotate(173)" fill="#ffb7b7"/>
    <rect id="Rectangle_88" data-name="Rectangle 88" width="3.253" height="9.353" transform="translate(1027.213 376.153) rotate(155)" fill="#ffc857"/>
    <rect id="Rectangle_87" data-name="Rectangle 87" width="3.217" height="9.25" transform="translate(996.835 341.209) rotate(-20)" fill="#e96390"/>
    <rect id="Rectangle_86" data-name="Rectangle 86" width="3.312" height="9.522" transform="translate(1034.421 276.778) rotate(-104)" fill="#ffb7b7"/>
    <rect id="Rectangle_85" data-name="Rectangle 85" width="3.88" height="11.154" transform="matrix(-0.035, -0.999, 0.999, -0.035, 1023.371, 153.479)" fill="#ff9747"/>
    <rect id="Rectangle_84" data-name="Rectangle 84" width="3.077" height="8.846" transform="matrix(-0.017, 1, -1, -0.017, 1038.177, 37.1)" fill="#ffc857"/>
    <rect id="Rectangle_81" data-name="Rectangle 81" width="3.95" height="11.355" transform="translate(974.591 339.447) rotate(-19)" fill="#ffc857"/>
    <rect id="Rectangle_80" data-name="Rectangle 80" width="3.384" height="9.728" transform="matrix(0.454, -0.891, 0.891, 0.454, 954.913, 208.571)" fill="#9984d4"/>
    <rect id="Rectangle_79" data-name="Rectangle 79" width="3.027" height="8.703" transform="matrix(0.087, -0.996, 0.996, 0.087, 940.039, 183.838)" fill="#ffc857"/>
    <rect id="Rectangle_78" data-name="Rectangle 78" width="3.043" height="8.75" transform="matrix(-0.788, 0.616, -0.616, -0.788, 965.708, 160.102)" fill="#e96390"/>
    <rect id="Rectangle_77" data-name="Rectangle 77" width="3.196" height="9.189" transform="matrix(-0.174, -0.985, 0.985, -0.174, 975.184, 132.434)" fill="#ffc857"/>
    <rect id="Rectangle_76" data-name="Rectangle 76" width="3.058" height="8.791" transform="matrix(0.788, -0.616, 0.616, 0.788, 984.661, 87.457)" fill="#ff9747"/>
    <rect id="Rectangle_72" data-name="Rectangle 72" width="3.922" height="11.275" transform="matrix(-0.921, -0.391, 0.391, -0.921, 930.787, 143.997)" fill="#e96390"/>
    <rect id="Rectangle_71" data-name="Rectangle 71" width="3.373" height="9.697" transform="translate(925.576 128.605) rotate(-110)" fill="#ffc857"/>
    <rect id="Rectangle_70" data-name="Rectangle 70" width="3.111" height="8.945" transform="matrix(0.545, -0.839, 0.839, 0.545, 897.254, 84.448)" fill="#e96390"/>
    <rect id="Rectangle_69" data-name="Rectangle 69" width="3.246" height="9.332" transform="translate(883.697 13.373) rotate(-45)" fill="#9984d4"/>
    <rect id="Rectangle_64" data-name="Rectangle 64" width="3.511" height="10.095" transform="translate(888.998 155.91) rotate(139)" fill="#9984d4"/>
    <ellipse id="Ellipse_93-2" data-name="Ellipse 93" cx="2.472" cy="2.472" rx="2.472" ry="2.472" transform="translate(1143.687 406.992) rotate(-104)" fill="#9984d4"/>
    <circle id="Ellipse_61" data-name="Ellipse 61" cx="2.545" cy="2.545" r="2.545" transform="translate(1258.823 522.533) rotate(-150)" fill="#ffc857"/>
    <ellipse id="Ellipse_60" data-name="Ellipse 60" cx="2.32" cy="2.32" rx="2.32" ry="2.32" transform="matrix(0.017, 1, -1, 0.017, 1273.519, 480.195)" fill="#e96390"/>
    <circle id="Ellipse_53" data-name="Ellipse 53" cx="2.527" cy="2.527" r="2.527" transform="matrix(-0.848, -0.53, 0.53, -0.848, 1197.51, 538.829)" fill="#9984d4"/>
    <circle id="Ellipse_52" data-name="Ellipse 52" cx="2.871" cy="2.871" r="2.871" transform="translate(1194.588 511.012) rotate(-49)" fill="#ffb7b7"/>
    <ellipse id="Ellipse_51" data-name="Ellipse 51" cx="2.598" cy="2.598" rx="2.598" ry="2.598" transform="matrix(-0.485, 0.875, -0.875, -0.485, 1209.371, 461.235)" fill="#ffc857"/>
    <ellipse id="Ellipse_50" data-name="Ellipse 50" cx="2.872" cy="2.872" rx="2.872" ry="2.872" transform="matrix(0.966, -0.259, 0.259, 0.966, 1211.816, 441.297)" fill="#e96390"/>
    <rect id="Rectangle_58" data-name="Rectangle 58" width="3.407" height="9.796" transform="translate(1253.88 450.676) rotate(131)" fill="#ff9747"/>
    <rect id="Rectangle_57" data-name="Rectangle 57" width="3.012" height="8.661" transform="translate(1271.995 428.842) rotate(150)" fill="#ffb7b7"/>
    <rect id="Rectangle_55" data-name="Rectangle 55" width="3.088" height="8.879" transform="translate(1220.207 416.912) rotate(159)" fill="#ffb7b7"/>
    <rect id="Rectangle_119" data-name="Rectangle 119" width="3.151" height="9.059" transform="translate(1288.999 25.766) rotate(138)" fill="#9984d4"/>
  </g>
</svg>
