<svg xmlns="http://www.w3.org/2000/svg" width="232.263" height="241.695" viewBox="0 0 232.263 241.695">
  <g id="Gruppe_81" data-name="Gruppe 81" transform="translate(2338.014 -2557.454) rotate(60)">
    <circle id="Ellipse_128" data-name="Ellipse 128" cx="2.366" cy="2.366" r="2.366" transform="matrix(-0.438, 0.899, -0.899, -0.438, 1281.18, 3316.63)" fill="#e96390"/>
    <circle id="Ellipse_129" data-name="Ellipse 129" cx="2.416" cy="2.416" r="2.416" transform="translate(1298.372 3245.716) rotate(135)" fill="#9984d4"/>
    <ellipse id="Ellipse_130" data-name="Ellipse 130" cx="2.472" cy="2.472" rx="2.472" ry="2.472" transform="translate(1285.335 3181.671) rotate(-104)" fill="#9984d4"/>
    <ellipse id="Ellipse_131" data-name="Ellipse 131" cx="2.278" cy="2.278" rx="2.278" ry="2.278" transform="matrix(-0.407, -0.914, 0.914, -0.407, 1225.962, 3253.77)" fill="#ffc857"/>
    <circle id="Ellipse_132" data-name="Ellipse 132" cx="2.375" cy="2.375" r="2.375" transform="matrix(-0.588, 0.809, -0.809, -0.588, 1148.866, 3343.375)" fill="#e96390"/>
    <ellipse id="Ellipse_133" data-name="Ellipse 133" cx="2.765" cy="2.765" rx="2.765" ry="2.765" transform="translate(1148.708 3281.501) rotate(-81)" fill="#ff9747"/>
    <ellipse id="Ellipse_134" data-name="Ellipse 134" cx="2.514" cy="2.514" rx="2.514" ry="2.514" transform="translate(1190.431 3245.733) rotate(-172)" fill="#e96390"/>
    <ellipse id="Ellipse_135" data-name="Ellipse 135" cx="2.761" cy="2.761" rx="2.761" ry="2.761" transform="matrix(-0.966, -0.259, 0.259, -0.966, 1116.715, 3225.066)" fill="#ffc857"/>
    <ellipse id="Ellipse_136" data-name="Ellipse 136" cx="2.281" cy="2.281" rx="2.281" ry="2.281" transform="translate(1122.7 3182.736) rotate(149)" fill="#e96390"/>
    <rect id="Rechteck_154" data-name="Rechteck 154" width="3.185" height="9.156" transform="translate(1300.806 3345.235) rotate(163)" fill="#ff9747"/>
    <rect id="Rechteck_155" data-name="Rechteck 155" width="3.753" height="10.791" transform="matrix(-0.788, 0.616, -0.616, -0.788, 1317.75, 3307.237)" fill="#e96390"/>
    <rect id="Rechteck_156" data-name="Rechteck 156" width="3.807" height="10.944" transform="translate(1306.095 3267.188) rotate(-17)" fill="#e96390"/>
    <rect id="Rechteck_157" data-name="Rechteck 157" width="3.957" height="11.377" transform="translate(1258.859 3282.475) rotate(-120)" fill="#ffc857"/>
    <rect id="Rechteck_158" data-name="Rechteck 158" width="3.409" height="9.801" transform="translate(1218.508 3315.617) rotate(-120)" fill="#ffc857"/>
    <rect id="Rechteck_159" data-name="Rechteck 159" width="3.317" height="9.536" transform="translate(1234.51 3305.315) rotate(173)" fill="#ffb7b7"/>
    <rect id="Rechteck_160" data-name="Rechteck 160" width="3.88" height="11.154" transform="matrix(-0.035, -0.999, 0.999, -0.035, 1165.02, 3329.159)" fill="#ff9747"/>
    <rect id="Rechteck_161" data-name="Rechteck 161" width="3.077" height="8.846" transform="matrix(-0.017, 1, -1, -0.017, 1179.826, 3212.779)" fill="#ffc857"/>
    <rect id="Rechteck_162" data-name="Rechteck 162" width="3.043" height="8.75" transform="matrix(-0.788, 0.616, -0.616, -0.788, 1107.357, 3335.781)" fill="#e96390"/>
    <rect id="Rechteck_163" data-name="Rechteck 163" width="3.196" height="9.189" transform="matrix(-0.174, -0.985, 0.985, -0.174, 1116.833, 3308.113)" fill="#ffc857"/>
    <rect id="Rechteck_164" data-name="Rechteck 164" width="3.058" height="8.791" transform="matrix(0.788, -0.616, 0.616, 0.788, 1126.31, 3263.136)" fill="#ff9747"/>
  </g>
</svg>
