<svg xmlns="http://www.w3.org/2000/svg" width="239" height="239" viewBox="0 0 239 239" role="img" aria-labelledby="logo">
  <title id="logo">finding the little things - prints and custom illustrations - by Laura Heine</title>
  <g id="Group_41" data-name="Group 41" transform="translate(-67.5 -77.5)">
    <circle id="Ellipse_122" data-name="Ellipse 122" cx="119.5" cy="119.5" r="119.5" transform="translate(67.5 77.5)" fill="#ffe6e3"/>
    <g id="Group_28" data-name="Group 28" transform="translate(83.734 92.881)">
      <path id="Path_49" data-name="Path 49" d="M350.652,562.825c-.573-1.827-2.469-4.993-12.27-11.367-3.872-2.518-7.578-4.63-9.214-5.542-.348-1.058-.846-3.056-1.372-5.395l2.825-.279c2.384-.236,8.025-1.406,8.923-7.176.639-4.107-1.835-8.878-5.4-10.417a6.556,6.556,0,0,0-2.612-.526c-2.53,0-5.05,1.346-7.022,2.787a11.593,11.593,0,0,0-2.223-3.843,5.938,5.938,0,0,0-4.421-1.878,7.241,7.241,0,0,0-5.223,2.309,8.5,8.5,0,0,0-2.174,6.425l0,.069.007.069a10.847,10.847,0,0,0,7.607,9.456c.18.878.409,1.909.648,2.957l-3.611-1.979-1.009.219c-7.63,1.655-12.016,7.178-10.914,13.743a46.655,46.655,0,0,0,3.975,11.387c.7,1.546,1.362,3.022,1.944,4.506l-.541-.418c-2.943-2.281-6.607-5.12-9.927-5.12a5.114,5.114,0,0,0-3.682,1.478c-1.366,1.354-1.983,3.309-1.855,5.918l-1.028-1.076-6.815,4.478,1.006,2.113a67.865,67.865,0,0,1,1.714,8.107c.278,1.766.444,3.217.533,4.392a85.558,85.558,0,0,1-4.19-10.495l-.195-.594.017,0L281.3,565.853l-8.427,2.374,3.056,11.277.057-.017.01.194c0,.074.362,7.433.18,12.9-.012.36-.027.687-.042.986-.193-.473-.379-.95-.539-1.359-1.683-4.3-3.776-9.651-8.388-9.651a5.576,5.576,0,0,0-1.223.138,6.505,6.505,0,0,0-2.839,1.466,46.951,46.951,0,0,0-.566-9.535c-.864-5.337-4.524-7.768-7.559-7.768a6.123,6.123,0,0,0-4.5,1.969,7.345,7.345,0,0,0-1.6,2.738l-7.75-.442-.306,2.582c0,.026-.244,2.047-.681,4.7l-5.747.056-.053,6.5-4.091.682-2.527.432a6.425,6.425,0,0,0-1.042-2.284A8.068,8.068,0,0,0,220,580.769a10.754,10.754,0,0,0-6.543,2.13l-.38.3c-1.755,1.38-4.694,3.689-7.617,5.618a21.662,21.662,0,0,1-5.91,3.083,22.565,22.565,0,0,1,1.426-6.49c.252.017.52.028.8.028,3.215,0,8.429-1.318,15.01-7.6,4.372-4.171,6.293-9.124,4.893-12.619a5.49,5.49,0,0,0-5.34-3.4c-2.592,0-5.71,1.315-9.256,3.869q-.257-.3-.54-.629c.906-.56,1.777-1.091,2.592-1.58l2.639-1.585-5.574-7.354-2.157,1.409c-1.362.889-2.766,1.792-4.182,2.688-.756-.583-1.537-1.134-2.335-1.631-.351-.219-.694-.448-1.031-.684,2.477-1.345,4.15-2.2,4.2-2.225l2.38-1.21-4.062-8.718-2.7,1.869c-.641.445-1.473,1-2.44,1.616l-1.255-6.375c4.465-2.05,5.126-4.63,4.812-6.539-.5-3.033-3.752-4.976-6.392-6.072a25.239,25.239,0,0,0-9.144-1.926q-.277,0-.544.009a88.476,88.476,0,0,0-9.242.827l.415-8.809-3.4.594c-.686.12-6.766,1.305-8.924,5.911a8.243,8.243,0,0,0-.227,6.2c-3.379,2.064-8.914,6.363-8.058,11.987.725,4.76,4.9,7.653,8.907,9.043-2.731,3.763-1.9,6.855-1.115,8.419,1.349,2.686,4.3,4.231,8.791,4.61-2.159,3.053-2.785,5.854-1.862,8.342,1.28,3.445,4.637,5.463,9.244,5.574a7.672,7.672,0,0,0,.469,5.063c.86,1.874,3.117,4.107,8.986,4.107a26.771,26.771,0,0,0,4.984-.5,13.835,13.835,0,0,0,1.92,10.01,7.191,7.191,0,0,0,6.212,3.159,14.8,14.8,0,0,0,5.744-1.387,10.89,10.89,0,0,0,1.62,5.552c1.152,1.784,3.515,3.994,8.227,4.393.43.037.865.055,1.29.055h0c10.565,0,15.739-10.865,16.774-13.324a16.9,16.9,0,0,0,1.361,1.152,6.407,6.407,0,0,0,3.912,1.338,6.993,6.993,0,0,0,1.626-.2c.091,4.225.774,10.019,3.564,13.138a6.321,6.321,0,0,0,4.8,2.222c.209,0,.422-.01.633-.03,3.812-.36,6.6-3.217,8.5-6.172l1.682,5.344,8.341-2.016-.613-2.664c-.327-1.422-.141-7.574,1.077-13.772,2.029,4.926,5.1,10.338,9.738,10.338a5.832,5.832,0,0,0,2.776-.717,10.253,10.253,0,0,0,4.646-6.39,7.607,7.607,0,0,0,5.441,2.4,7.729,7.729,0,0,0,2.8-.546c2.672-1.036,5.759-4.047,5.292-12.5-.005-.093-.011-.187-.017-.279l6.794,6.316,4.167-4.867,1.832-2.158-2.194-1.789c-.85-.693-2.956-4.567-4.663-8.915a15.846,15.846,0,0,0,8.377,2.984,8.127,8.127,0,0,0,4.835-1.5c2.69-1.927,3.011-5.759.952-11.391q-.053-.143-.106-.286a11.416,11.416,0,0,0,1.274.073,8.625,8.625,0,0,0,6.492-2.742,6.584,6.584,0,0,0,.623-.781c4.6,8.79,10.45,14.06,16.121,14.061h0c.166,0,.329,0,.492-.014a8.8,8.8,0,0,0,7.134-3.664C351.539,570.058,351.837,566.6,350.652,562.825ZM168.036,544.85a7.436,7.436,0,0,1-2.281-.265c-3.419-1.138-4.417-1.875-4.693-2.257.144-.319.844-1.455,4.009-3.357a38.877,38.877,0,0,0,12.871,4.22l-.357.1A43.122,43.122,0,0,1,168.036,544.85Zm4.878,11.7a19.473,19.473,0,0,1-3.405-.509,16,16,0,0,1,1.815-.886c5.564-2.346,7.626-2.778,7.983-2.841l1.434-.013a20.976,20.976,0,0,0,1.07,1.939c-3.137,1.367-6.151,2.327-8.411,2.327C173.231,556.563,173.068,556.557,172.914,556.546ZM179.429,570a20.646,20.646,0,0,1-2.506.168c-.434,0-.792-.018-1.086-.045a16.026,16.026,0,0,1,1.44-1.45,76.963,76.963,0,0,1,10.865-7.581q.657.51,1.377,1.014c.761.531,1.474,1.055,2.149,1.57C185.792,567.173,180.851,569.822,179.429,570Zm16.153,6.635a45.255,45.255,0,0,1-9.755,3.04c2.45-2.407,7.555-6.068,12.842-9.576.562.639,1.025,1.211,1.4,1.7Q197.9,573.994,195.582,576.639Zm25.525,20.451c-2.071,2.287-4.058,3.6-5.451,3.6a1.964,1.964,0,0,1-.61-.094,1.893,1.893,0,0,1-1.334-1.028,4.733,4.733,0,0,1-.077-2.645,23.043,23.043,0,0,0,3.26.245,14.766,14.766,0,0,0,4.764-.708Q221.392,596.774,221.107,597.09Zm6.018-5.521c.118-.271.216-.532.3-.775a10.269,10.269,0,0,0,.493-2.29l.167.609a26.294,26.294,0,0,0,.945,2.974Zm10.412-2.442a10.426,10.426,0,0,1-.5-1.509l1.082-.027A16.39,16.39,0,0,1,237.536,589.127Zm12.637,11.637a15.269,15.269,0,0,1-1.678,3.2c-.77-4.131-.824-9.826-.161-16.622l2.117-.052c.79,3.327,1.594,6.158,1.989,7.5C252.162,595.611,251.535,597.346,250.173,600.764Zm63.091-47.745a3.273,3.273,0,0,1-1.164-2.384,3.386,3.386,0,0,1,1.16-1.73c1.69,1.59,2.493,2.489,4.419,7.116.063.152.117.292.164.42A14.582,14.582,0,0,1,313.264,553.019Zm13.358-18.066c.4-.37.832-.781,1.2-1.153l-.342,5.276C327.187,537.735,326.895,536.328,326.622,534.953Zm15.585,32.074a1.1,1.1,0,0,1-.4.284.6.6,0,0,1-.289.078c-.843,0-3.129-1.507-6.348-7.154q-.269-.471-.524-.942a33.111,33.111,0,0,1,4.539,3.439C341.914,565.25,342.261,566.8,342.207,567.027Z" transform="translate(-144.762 -412.193)" fill="#ffe6e3"/>
      <path id="Path_50" data-name="Path 50" d="M140.239,210.961a4.28,4.28,0,0,1-1.208-.187l-3.644-1.426-.147,10.162,2.447.315a17.037,17.037,0,0,0,2.161.144c5.364,0,8.313-2.793,9.752-5.607,8.513,4.608,17.459,8.085,22.576,8.7a29.543,29.543,0,0,0,3.5.219c5.341,0,8.974-1.7,10.23-4.785,1.279-3.144-.148-6.761-4.24-10.753a23.756,23.756,0,0,0-10.433-5.587,6.824,6.824,0,0,0,1.822-3.394,8.085,8.085,0,0,0,.177-1.477l5.282-5.417-1.2-1.853a73.839,73.839,0,0,1-4.808-8.591c2.37,2.253,5.04,4.153,7.789,4.343.234.016.467.024.693.024a7.379,7.379,0,0,0,5.556-2.286,8.027,8.027,0,0,0,1.639-2.716,9.836,9.836,0,0,0,1.916.2,6.76,6.76,0,0,0,2.553-.469,10.443,10.443,0,0,0,5.2-5.444,7.006,7.006,0,0,0,3.728,1.156c2.795,0,5.074-1.821,6.807-5.424a7.626,7.626,0,0,0,4.2,1.372,6.473,6.473,0,0,0,3.5-1.014l.007.044,6.4-1.12,1.976-.348.284-1.986a42.638,42.638,0,0,1,2.87-10.25c-.025,3.748.663,8.085,4.537,10.184a7.612,7.612,0,0,0,3.645.974,7.093,7.093,0,0,0,3.974-1.233,9.552,9.552,0,0,0,1.989,1.748l-.252.127c-7.957,4.055-11.883,10.366-11.356,18.25a7.711,7.711,0,0,0,2.533,5.1,10.654,10.654,0,0,0,3.775,2.295,8.493,8.493,0,0,0,2.72.448,11.171,11.171,0,0,0,7.575-3.42c5.089-4.73,9.139-13.277,10.823-17.194a4.522,4.522,0,0,1,2.191,1.257l1.785,2.057,4.682-3.946a8.736,8.736,0,0,0,.2,1.967c.787,3.607,3.431,5.71,6.522,6.743l-1.672,1.886,7.606,5.557,1.665-1.94c1.948-2.272,7.979-5.113,12.877-5.842a19.465,19.465,0,0,0-7.5,8.354c-1.426,3.384-1.408,6.216.053,8.418a7.481,7.481,0,0,0,3.583,2.752,8.693,8.693,0,0,0-.37,3.12c.208,3.309,2.188,6.546,5.886,9.62,4.514,3.753,11.91,4.313,15.917,4.313,1.2,0,1.975-.053,2.007-.055l2.72-.19-.35-6.24-.182-3.114-3.072.549a18.82,18.82,0,0,1-2.97.216c-3,0-7.156-.605-9.886-3.49-.4-.42-1.044-1.206-.912-1.757a3.721,3.721,0,0,1,1.573-1.723,8.553,8.553,0,0,0,3.167,3.573c1.981,1.277,4.553,1.943,8.1,2.1.135.006.268.009.4.009a6.612,6.612,0,0,0,6.566-4.425c1.229-3.5-.235-7.809-3.56-10.471a10.441,10.441,0,0,0-6.8-2.17,34.792,34.792,0,0,0-7.271,1.064,41.575,41.575,0,0,1-4.9.878l-.27.023c.127-.155.266-.321.419-.5a20.074,20.074,0,0,1,3.961-2.767c3.408-2.051,7.271-4.375,7.724-8.073a6.834,6.834,0,0,0-2.35-5.731,11.448,11.448,0,0,0-6-3.087l.092-.065c3.312-2.336,7.5-5.509,8.625-7.362,2.13-3.5,2.573-6.4,1.319-8.636-.591-1.052-2.1-2.816-5.531-2.816a14.579,14.579,0,0,0-6.053,1.514,16.479,16.479,0,0,0-3.335,2.257l-2.4-1.817c1.843-1.746,3.1-2.919,3.119-2.936l1.914-1.783-5.506-6.6-2.13,1.859c-.017.015-1.521,1.327-4.689,4l-6.389-4.7-6.119,6.548.019-.056L264,148.186l-.747,3.058c-1.71-2.316-5.248-5.885-10.81-5.885a13.5,13.5,0,0,0-2.778.3c-7.368,1.552-10.845,7.553-12.923,11.139-.105.182-.211.365-.316.543q0-.1-.007-.21c-.02-.7-.033-1.37-.046-2.012a30.248,30.248,0,0,0-.548-6.52c-.865-3.354-3.063-4.348-4.755-4.59a4.841,4.841,0,0,0-.682-.048c-2.567,0-5.368,2.143-7.645,4.936l-.515-4.535-8.78.843.047,2.557c0,.035.06,3.516-.234,7.335a32.679,32.679,0,0,1-1.048,6.71,46.5,46.5,0,0,1-1.891-10.921l-.205-3.247-.507.116-.843-7.8-9.348,1.364,1.218,11.617.638-.131a58.833,58.833,0,0,1,.457,7.121,20.678,20.678,0,0,1-.736,6.168c-.978-1.832-2.689-5.942-5.118-15.032-2.035-7.615-3.543-14.887-3.558-14.96l-.608-2.944-9.306,2.752,4.468,16.034c-.133,0-.269-.007-.4-.007a8.306,8.306,0,0,0-6.951,3.151c-2.351,3.118-2.514,8.065-.5,15.123l.021.071a28.459,28.459,0,0,1,1.257,6.274,56.35,56.35,0,0,1-6.825-6.59c-1.019-1.108-1.825-1.982-2.418-2.514a6.324,6.324,0,0,0-4.193-1.682,5.246,5.246,0,0,0-4.146,1.986c-1.042,1.287-2.086,3.752-1.141,8.185q.049.23.1.455l-2.358-1.939-5.744,6.383,1.64,1.847a68.507,68.507,0,0,1,8.46,11.5,49.579,49.579,0,0,1-8.011-6.941l-1.905-2.018-.192.183-4.795-6.079-6.547,6.123,5.958,7.237c.009,1.815-.022,3.723-.088,5.5-3.767-7.519-10.578-11.9-15.812-11.9a5.866,5.866,0,0,0-5.384,2.8c-.834,1.508-1.3,4.152,1.231,8.191,2.968,4.738,8.8,9.233,13.657,12.43C141.444,210.961,140.741,210.961,140.239,210.961Zm142.835-45.79c.687-.654,1.385-1.321,2.081-1.987l2.469,1.864c-3.407,3.673-6.5,7.4-7.635,8.78a8.7,8.7,0,0,1-3.079.68c-.816,0-1.3-.212-1.4-.409-.127-.248-.057-1.021.674-2.042C276.9,171.054,280.182,167.929,283.074,165.171ZM271.338,155.2l.63-1.881,3.738,2.9c-.946.33-1.8.6-2.337.737a6.966,6.966,0,0,1-1.741.275,1.921,1.921,0,0,1-.465-.045A4.368,4.368,0,0,1,271.338,155.2Zm-8.4,4.79a7.7,7.7,0,0,0,1.28,2.473,8.094,8.094,0,0,0,5.865,2.94,19.227,19.227,0,0,0-3.058,4.967l-.7-.573a21.456,21.456,0,0,0-5.723-3.263Zm-12.066-5.578a3.476,3.476,0,0,1,1.535-.438A2.576,2.576,0,0,1,254.257,155c-2.01,3-5.194,6.484-7.371,6.484a1.6,1.6,0,0,1-.346-.036c-.521-.114-.533-.208-.555-.378C245.788,159.524,247.9,155.927,250.868,154.416Zm-3.816,21.963c-.452.906-.951,1.861-1.485,2.811-3.277,5.824-5.43,7.1-5.983,7.1a.665.665,0,0,1-.283-.178c-.161-.144-.54-.481-.058-1.8C240.19,181.7,243.53,178.357,247.052,176.379Zm-60.114-15.911h.029a6.91,6.91,0,0,1,2.448.705,54.059,54.059,0,0,1,1.1,5.867,7.173,7.173,0,0,1-.86,4.936C187.417,169.09,186.049,163.275,186.937,160.468Zm-25.965,48.92c6.573,0,13.394,3.3,15.616,5.319-.1,0-.2.008-.314.008-3.833,0-10.723-2.833-15.937-5.315Q160.648,209.388,160.973,209.388Zm-3.928-8.811q.385.286.788.567c-.281.03-.565.064-.85.1C157,201.029,157.025,200.8,157.044,200.577Z" transform="translate(-126.237 -133.151)" fill="#ffe6e3"/>
    </g>
    <g id="Group_30" data-name="Group 30" transform="translate(86.496 96.384)">
      <path id="Path_51" data-name="Path 51" d="M203.747,319.408l-3.515-4.457-2.456,2.3,3.51,4.263Z" transform="translate(-180.765 -268.207)" fill="#292929"/>
      <path id="Path_52" data-name="Path 52" d="M402.6,175.651l3.876-.8-.617-5.716-3.883.566Z" transform="translate(-328.527 -162.696)" fill="#292929"/>
      <path id="Path_53" data-name="Path 53" d="M264.2,177.67l5.026-14.1s-3.827-7.707-11.758-6.037-10.675,9.853-12.513,12.036-3.892,2.8-4.065-3.189.169-10.016-2.979-10.467-8.75,6.786-9.675,11.313l-1.214-10.686-3.53.339s.316,17.372-3.7,18.11-5-14.761-5-14.761l-3.622.831s2.254,15.286-2.326,17.995-12-33.228-12-33.228l-3.814,1.128,4.935,17.707s-14.7-5.8-9.053,13.956c0,0,3.546,11.257-.719,10.421-3.48-.682-9.817-8.634-11.748-10.363-2.393-2.144-6.394-1-4.933,5.854s3.557,9.675,3.557,9.675l-8.233-6.769-2.324,2.582s12.248,13.787,9.534,16.569-13.161-8.278-13.161-8.278l-2.716,2.587s.153,12.171-1.09,14.838l-2.073-.956s-.5-1.951-.822-2.935c-5.106-15.742-23.193-17.576-16.481-6.861,2.6,4.144,8.029,8.574,14.274,12.517l0,.052c-.309,7.321-6.653,4.995-6.653,4.995l-.054,3.709c9.236,1.187,9.938-6.74,9.938-6.74l-.024-.074c9.16,5.328,19.268,9.413,24.551,10.046,9.635,1.155,15.28-2.744,7.23-10.6s-24.329-6.37-26.073-4.581c0,0,1.285-7.085.551-10.806,0,0,8.859,9.706,14.122,6.6s-.836-11.868-.836-11.868l4.875,5.142,2.617-2.684s-4.3-6.622-5.63-10.532-2.981-9.059-1.4-8.294,7.705,9.982,12.52,10.314,5.643-4.1,5.522-5.861c0,0,3.359,1.725,5.606.813s4.657-4.378,4.706-8.306c0,0,6.81,10.713,10.948-3.77,0,0,5.9,8.761,10.586-1.311l.534,3.429,3.624-.635s1.713-12.1,6.667-16.282-1.77,10.62,4.792,14.175c4.251,2.3,6.843-2.344,6.843-2.344s3.272,10.365,14.639.9l-1.513,4.633s-21.623,2.556-20.528,18.927c.179,2.672,2.815,4.413,4.433,4.959,1.824.615,4.424.509,7.53-2.377,6.21-5.772,10.963-18.2,10.963-18.2s3.828-.048,6.02,2.477l2.72-2.292S268.032,178.014,264.2,177.67Zm-124.348,24.2c.985-1.416,9.364,4.241,11.1,11.109C150.953,212.975,138.867,203.281,139.851,201.866Zm47.409,22.9c-2.478,6.693-26.5-6.557-26.5-6.557C167.167,211.746,187.755,219.773,187.26,224.761Zm7.5-41.844c-2.873-3.632-4.488-10.565-3.16-14.326s7.334-.169,7.334-.169.708,1.6,1.545,7.393S197.638,186.55,194.765,182.918Zm49.927,14.427c-5.047-4.5,6.745-15.994,14.621-16.231C259.313,181.114,250.805,202.8,244.692,197.344Zm8.486-24.025c-5.594-1.229-1.724-9.454,3.667-12.2s7.909,3.034,7.909,3.034S258.772,174.549,253.179,173.32Z" transform="translate(-136.23 -145.825)" fill="#292929"/>
      <path id="Path_54" data-name="Path 54" d="M665.6,241.85c.37,5.047,4.064,6.684,9.577,6.921s5.888-6.5,1.559-9.969-11.176-.166-16.986.366-5.374-1.31-2.206-5.024,15.373-6.928,9.482-12.824c-4.054-4.058-11.589-2.489-15.895-1.116,4.722-1.915,16.8-10.482,18.2-12.789,4.382-7.193-.99-8.692-6.731-6a20.2,20.2,0,0,0-4.377,3.319l-6.8-5.139c3.091-2.959,5.5-5.2,5.5-5.2l-2.02-2.424s-2.008,1.752-6.391,5.431l-6.163-4.53-2.474,2.647,5.138,3.99a41.765,41.765,0,0,1-7.066,2.687c-7.83,2.073-5.359-5.308-5.359-5.308l-2.931-1.8c-3.785,15.508,12.535,8.675,12.535,8.675-3.786,3.262-10.356,8.989-9.191,14.329,1.24,5.688,9.251,5.373,9.251,5.373l-3.019,3.405,3.09,2.257c3.319-3.868,14.742-8.451,20.276-6.531s-6.692,3.452-10.259,11.915,5.459,8.044,5.459,8.044c-3.474,3.718-2.345,8.3,2.914,12.668s15.965,3.626,15.965,3.626l-.2-3.518s-9.774,1.807-15.359-4.093S665.6,241.85,665.6,241.85Zm3.923-1.157c5.39-.3,6.91,1.979,6.925,3.126s-1.348,2.312-4.919,1.209A2.988,2.988,0,0,1,669.522,240.693Zm-2.556-36.21c.031,2.449-14.709,11.053-14.709,11.053C659.488,206.261,666.935,202.035,666.966,204.483Zm-29.155,8.53c1.2-1.671,6.5-6.53,11-10.893l6.825,5.151c-4.95,5.065-10.073,11.41-10.073,11.41C637.95,221.992,634.535,217.59,637.811,213.014Z" transform="translate(-492.871 -179.219)" fill="#292929"/>
      <g id="Group_29" data-name="Group 29" transform="translate(7.079 106.257)">
        <path id="Path_55" data-name="Path 55" d="M221.445,611.913c-5.959-1.906-2.457-9.5-2.457-9.5s10.782,3.04,13.051-3.808-5.978-7.717-9.631-4.851-13.788,10.968-17.13,9.5,1.2-12.362,1.2-12.362,5.828,2.993,15.65-6.377c8.16-7.784,5.048-17.219-8.246-6.3a55.511,55.511,0,0,0-4.375-5.044c3.189-2.021,5.455-3.382,5.455-3.382L212.8,566.95s-2.473,1.615-5.909,3.766a28.99,28.99,0,0,0-3.58-2.678,29.725,29.725,0,0,1-4.485-3.468c4.425-2.5,7.865-4.251,7.865-4.251L205.141,557s-3.739,2.6-8.574,5.266a20.047,20.047,0,0,1-3.715-5.405l5.334-1.143-.687-3.492-8.515,1.806s-.275,4.665,4.279,9.973c-4.658,2.319-9.734,4.256-13.315,3.985-8.444-.638-9.334-3.8-2.456-6.7s8.8-3.049,8.8-3.049l-.709-3.6s-9.265,2.654-13.463,1.257-12.61-4.405.192-11.423c0,0,12.233,7.878,24.608,3.692s-.947-10.211-8.227-9.961a85.689,85.689,0,0,0-14.787,1.841s-3.31-3.833,2.779-5.812l.163-3.457s-11.043,1.931-6.069,10.586c0,0-9.758,4.63-8.883,10.374s9.007,7.913,12,7.681c0,0-6.763,4.4-4.473,8.956s12.922,2.874,12.922,2.874-7.5,5.962-5.871,10.356,8.084,4.325,12.066,2.941c0,0-4.245,3.557-2.432,7.506s12.247,2.5,15.538.519c0,0-3.519,7.375.121,12.69s13.2-1.882,13.2-1.882-4.06,11.507,6.557,12.407,15.433-11.957,15.433-11.957l-3.078-.838S227.4,613.819,221.445,611.913Zm7.761-15.118c.989,2.009-3.937,4.371-8.244,2.619C220.962,599.415,227.146,593.1,229.206,596.8Zm-35.915-54.467c3.916.74,5.272,2.094,2.194,2.75a32.477,32.477,0,0,1-18.42-2.224A49.286,49.286,0,0,1,193.291,542.329Zm27.1,38.986c-4.1,4.906-8.241,6.686-11.678,6.743,0,0,5.984-7.554,12.434-10.452C224.683,576.082,222.357,578.97,220.4,581.315Zm-33.382.115c-4.477.562-11.389.236-4.348-6.121a87.819,87.819,0,0,1,12.979-8.9,29.727,29.727,0,0,0,2.7,2.121,61.963,61.963,0,0,1,5.348,4.172C197.321,576.6,189.523,581.115,187.014,581.43Zm2.472,6.912c1.9-3.033,10.239-8.831,16.865-13.141a30.709,30.709,0,0,1,4.557,5.647,92.551,92.551,0,0,0-6.411,6.763S187.432,595.173,189.486,588.342Z" transform="translate(-161.844 -530.637)" fill="#292929"/>
        <path id="Path_56" data-name="Path 56" d="M606.568,707.46l-1.5-5.932-3.062.863,1.605,5.924Z" transform="translate(-480.352 -654.199)" fill="#292929"/>
        <path id="Path_57" data-name="Path 57" d="M554.6,571.982c-1.661-5.294-21.034-15.786-21.034-15.786-1.093-2-3.371-13.92-3.371-13.92s1.953-1.715,2.622-2.5,5.021-5.185,6.753-1.67-2.4,4.044-2.4,4.044l-.237,3.668c9.727-.961,6.8-10.536,2.7-12.3s-10.156,4.852-10.156,4.852-.473-4.76-2.635-7.1-7.336-.475-7.03,4.819a8.293,8.293,0,0,0,7.251,7.468c.264,2.065,2.389,10.66,2.389,10.66l-8.167-4.477c-5.23,1.135-9.742,4.821-8.774,10.585s4.183,10.938,6.171,16.415.01,4.17-1.888,3.9-10.1-9.228-13.295-6.062,1.912,13.929,1.912,13.929l-7.148-7.476-2.878,1.891c.623,1.307,4.458,18.528,1.413,19.6s-8.507-15.608-8.507-15.608l-2.95.958s.37,7.479.182,13.124-.938,6.746-3.338,5.368-4.089-13.761-9.008-12.65-6.731,14.076-6.731,14.076l-1.31-4.8a43.181,43.181,0,0,0,1.3-19.6c-1.2-7.415-9.109-7.22-8.627.355a50.926,50.926,0,0,0,.737,5.635l-5.65.055c.589-4.083,1.173-6.86,1.173-6.86l-3.875-.221s-.391,3.3-1.1,7.119l-5.332.052-.03,3.652,4.618-.112c-.833,3.584-1.92,6.867-3.2,7.615-3.093,1.8-4.316-4.567-4.316-4.567l-3.5.584c.727,2.655,1.31,4.8,4.413,7.166s6.769-1.462,6.769-1.462c-.492,4.417-.278,17.957,5.829,17.38s9.26-11.04,9.26-11.04l3.042,9.67,3.173-.767c-.471-2.049-.188-9.161,1.268-15.948s3.611-3.2,4.129-1.884,4.575,13.306,9.581,10.624,4.076-13.35,4.076-13.35,2.74,11.154,9.118,8.679,2.28-17.694,2.28-17.694l10.562,9.818,2.3-2.68c-2-1.618-5.394-9.071-6.936-14.166s.8-3.19,3.484-.791,8.375,5.817,12.129,3.128-2.885-14.375-2.885-14.375c1.221.948,7.426,4.326,11.084.394s-3.291-12.884-3.291-12.884l4.139,2.287c5.119,16.288,12.96,23.293,18.254,22.987S556.266,577.275,554.6,571.982Zm-30.788-38.075c1.474-1.157,2.538,5.852,2.538,5.852C523.157,538.858,522.342,535.063,523.817,533.906Zm-64.487,76.21c-2.357,5.918-5.841,8.064-6.832,3.344-1.279-6.057-.811-14.123-.063-20.492l6.8-.165c1.2,5.481,2.686,10.335,2.686,10.335A71.286,71.286,0,0,1,459.33,610.116Zm3.948-13.652s-3.523-14.534-1.346-14.7S464.179,594.621,463.279,596.464Zm63.542-33.176c2.69,6.465-3.522,5.695-8.971-.036s2.284-9.561,2.284-9.561C523.182,556.687,524.13,556.822,526.821,563.287ZM549.656,578.1c-6.606,3.383-14.44-16.817-14.44-16.817C548.176,567.057,555.172,575.274,549.656,578.1Z" transform="translate(-361.193 -530.282)" fill="#292929"/>
      </g>
    </g>
    <g id="Group_40" data-name="Group 40" transform="translate(145.799 143.829)">
      <path id="Path_58" data-name="Path 58" d="M561.121,426.263s6.15-16.387,31.733-8.385C592.854,417.877,581.326,439.3,561.121,426.263Z" transform="translate(-502.992 -388.539)" fill="#91a394" style="isolation: isolate"/>
      <path id="Path_59" data-name="Path 59" d="M549.176,378.041s-4.922-13.269,14.337-21.015C563.513,357.026,566.267,374.392,549.176,378.041Z" transform="translate(-493.941 -346.099)" fill="#91a394" style="isolation: isolate"/>
      <path id="Path_60" data-name="Path 60" d="M387.607,335.96s-11.7-1.266-10.311-18.469C377.3,317.491,391.238,321.891,387.607,335.96Z" transform="translate(-369.89 -317.491)" fill="#91a394" style="isolation: isolate"/>
      <path id="Path_61" data-name="Path 61" d="M611.21,625.691s-8.5,8.134-20.769-4.008C590.441,621.683,602.786,613.852,611.21,625.691Z" transform="translate(-524.208 -535.771)" fill="#91a394" style="isolation: isolate"/>
      <g id="Group_31" data-name="Group 31" transform="translate(0 7.468)">
        <path id="Path_62" data-name="Path 62" d="M371.1,362.271s0-18.3,8.874-17.748,6.1,19.412,4.715,23.017c0,0,16.639-1.387,18.857,9.429s-11.093,8.874-19.412,5.269c0,0,7.21,19.69-4.16,20.521S369.709,386.4,369.709,386.4s-13.866,13.588-18.025,5.546,7.487-16.639,11.647-16.639c0,0-15.807-6.656-10.538-15.807S371.1,362.271,371.1,362.271Z" transform="translate(-350.8 -344.51)" fill="#9984d4"/>
        <path id="Path_63" data-name="Path 63" d="M420.439,431.594s-6.933-1.387-6.933,3.882,5.546,5.269,5.546,5.269,6.378-.555,6.378-4.714S420.439,431.594,420.439,431.594Z" transform="translate(-396.175 -407.406)" fill="#ffc857" style="isolation: isolate"/>
      </g>
      <g id="Group_32" data-name="Group 32" transform="translate(22.04 52.603)">
        <path id="Path_64" data-name="Path 64" d="M448.825,526.521s-3.654-17.716,4.692-18.662,10.473,14.812,8.836,17.376c0,0,11.16-5.473,16.131,1.969s-1.528,11.384-11.457,11.282c0,0,9.187,7.954,3.506,13.95S456.9,544.9,456.4,543.887c0,0-5.407,12.629-13.122,10.606s-.133-15.306,2.155-17.057c0,0-12.772,1.544-14.685-5.95S440.859,520.926,448.825,526.521Z" transform="translate(-430.543 -507.818)" fill="#9984d4"/>
        <path id="Path_65" data-name="Path 65" d="M511.575,584.657s-4.914.85-4.187,4.849,5.665,3.332,5.665,3.332,4.706-1.008,4.187-4.849S511.575,584.657,511.575,584.657Z" transform="translate(-486.096 -563.404)" fill="#ffc857" style="isolation: isolate"/>
      </g>
      <g id="Group_33" data-name="Group 33" transform="translate(3.526 60.23)">
        <path id="Path_66" data-name="Path 66" d="M368.929,546.832s-1.606,4.336.963,4.819,2.891-4.015,2.891-4.015,2.73,4.337,4.818,1.285-.963-4.015-.963-4.015,4.336-.642,3.052-3.373-4.818.161-4.818.161,1.285-5.943-1.606-6.264-3.052,4.5-3.052,4.5-2.73-3.212-5.14-2.088,1.767,4.979,1.767,4.979-3.854.482-3.212,2.891S368.929,546.832,368.929,546.832Z" transform="translate(-363.557 -535.413)" fill="#f6795a"/>
        <path id="Path_67" data-name="Path 67" d="M388.343,560.948s-.909-1.712-1.869-.892a1.673,1.673,0,0,0-.21,2.668C387.084,563.682,389.366,563.116,388.343,560.948Z" transform="translate(-379.579 -553.084)" fill="#ffe6e3"/>
      </g>
      <g id="Group_34" data-name="Group 34" transform="translate(7.34 78.638)">
        <path id="Path_68" data-name="Path 68" d="M384.429,605.648s-2.088-4.336-4.176-3.052.161,4.015.161,4.015-3.212.161-3.052,2.088,3.052,2.248,3.052,2.248a2.826,2.826,0,0,0,.482,4.176c2.409,1.927,4.658-2.409,4.658-2.409s1.445,4.818,4.336,3.052.161-4.658.161-4.658,3.694.321,3.052-2.73-5.14-.642-5.14-.642,2.57-4.818.321-5.621S384.429,605.648,384.429,605.648Z" transform="translate(-377.356 -602.015)" fill="#f6795a"/>
        <path id="Path_69" data-name="Path 69" d="M402.622,625.43s1.559-1.151.608-1.979a1.673,1.673,0,0,0-2.67.185C399.732,624.588,400.628,626.761,402.622,625.43Z" transform="translate(-393.924 -617.108)" fill="#ffe6e3"/>
      </g>
      <g id="Group_35" data-name="Group 35" transform="translate(78.261 40.049)">
        <path id="Path_70" data-name="Path 70" d="M639.258,465.147s-3.373-2.248-4.5-.482,1.606,3.694,1.606,3.694-3.694,2.088-1.927,5.139,4.979-1.124,4.979-1.124-.8,4.336,1.767,4.336,1.927-4.336,1.927-4.336,3.212,3.373,4.979.642-1.445-4.176-1.445-4.176,3.373-1.285,2.409-3.212-5.14.643-5.14.643-.482-3.533-2.409-3.855S639.258,465.147,639.258,465.147Z" transform="translate(-633.962 -462.393)" fill="#f6795a"/>
        <path id="Path_71" data-name="Path 71" d="M657.258,480.3s-1.876-.488-1.921.773a1.673,1.673,0,0,0,1.823,1.959C658.421,483.078,659.547,481.015,657.258,480.3Z" transform="translate(-649.427 -475.285)" fill="#ffe6e3"/>
      </g>
      <g id="Group_36" data-name="Group 36" transform="translate(72.753 8.796)">
        <path id="Path_72" data-name="Path 72" d="M622.39,352.167s-1.446-3.533-3.694-2.73.161,4.818.161,4.818-3.533-2.088-4.658.8,3.855,3.212,3.855,3.212-2.73,3.694-.482,5.139S621.426,361,621.426,361s1.124,3.533,3.855,2.409.161-4.5.161-4.5,4.979.643,4.5-2.57-4.818-1.445-4.818-1.445,3.694-3.373,1.285-5.139S622.39,352.167,622.39,352.167Z" transform="translate(-614.033 -349.318)" fill="#f6795a"/>
        <path id="Path_73" data-name="Path 73" d="M640.537,371.849s1.482-1.249.479-2.014a1.673,1.673,0,0,0-2.652.356C637.6,371.194,638.632,373.305,640.537,371.849Z" transform="translate(-631.456 -363.805)" fill="#ffe6e3"/>
      </g>
      <g id="Group_37" data-name="Group 37" transform="translate(68.984 54.434)">
        <path id="Path_74" data-name="Path 74" d="M609.651,518.387s.026-3.817-2.358-3.942-1.707,4.509-1.707,4.509-2.457-3.287-4.608-1.052,2.321,4.449,2.321,4.449-3.942,2.358-2.424,4.558,4.485-.739,4.485-.739-.323,3.694,2.63,3.707,1.88-4.089,1.88-4.089,4.348,2.51,5.14-.64-3.89-3.189-3.89-3.189,4.708-1.691,3.165-4.249S609.651,518.387,609.651,518.387Z" transform="translate(-600.393 -514.442)" fill="#f6795a"/>
        <path id="Path_75" data-name="Path 75" d="M623.767,539.969s1.849-.582,1.218-1.675a1.673,1.673,0,0,0-2.585-.692C621.307,538.233,621.448,540.58,623.767,539.969Z" transform="translate(-615.841 -530.951)" fill="#ffe6e3"/>
      </g>
      <g id="Group_38" data-name="Group 38" transform="translate(37.56 10.979)">
        <path id="Path_76" data-name="Path 76" d="M495.054,361.122s-3.259-4.336-4.762-2.73,0,4.818,0,4.818-3.751.321-3.59,2.891,4.336,1.445,4.336,1.445-2.088,4.176.643,4.818,3.533-3.533,3.533-3.533,2.248,3.854,4.818,1.767-.642-4.336-.642-4.336,3.854-.482,3.373-2.73-3.855-1.124-3.855-1.124,2.73-3.694.643-4.979S495.054,361.122,495.054,361.122Z" transform="translate(-486.697 -357.216)" fill="#f6795a"/>
        <path id="Path_77" data-name="Path 77" d="M511.973,380.181s-1.732.87-.934,1.848a1.673,1.673,0,0,0,2.662.27C514.678,381.5,514.164,379.208,511.973,380.181Z" transform="translate(-504.159 -373.663)" fill="#ffe6e3"/>
      </g>
      <g id="Group_39" data-name="Group 39" transform="translate(54.588 44.003)">
        <path id="Path_78" data-name="Path 78" d="M559.054,486.614s5.379-.7,4.72-2.8-4.195-2.37-4.195-2.37,1.566-3.424-.751-4.548-3.392,3.064-3.392,3.064-2.608-3.872-4.511-1.811,1.338,4.814,1.338,4.814-4.462.061-3.908,3.326,4.091,1.574,4.091,1.574-1.477,3.593.718,4.28,2.875-2.8,2.875-2.8,1.873,4.194,4.018,3.009S559.054,486.614,559.054,486.614Z" transform="translate(-548.308 -476.701)" fill="#f6795a"/>
        <path id="Path_79" data-name="Path 79" d="M571.018,501.631s-1.872-.5-1.927.756a1.672,1.672,0,0,0,1.806,1.974C572.157,504.417,573.3,502.363,571.018,501.631Z" transform="translate(-563.344 -494.669)" fill="#ffe6e3"/>
      </g>
    </g>
    <circle id="Ellipse_123" data-name="Ellipse 123" cx="3.925" cy="3.925" r="3.925" transform="translate(104.773 185.996)" fill="#f6795a"/>
    <circle id="Ellipse_124" data-name="Ellipse 124" cx="3.925" cy="3.925" r="3.925" transform="translate(261.397 185.996)" fill="#f6795a"/>
  </g>
</svg>
